<?xml version="1.0" encoding="utf-8"?>
<!-- Generator: Adobe Illustrator 22.0.1, SVG Export Plug-In . SVG Version: 6.00 Build 0)  -->
<svg version="1.1" id="Layer_1" xmlns="http://www.w3.org/2000/svg" xmlns:xlink="http://www.w3.org/1999/xlink" x="0px" y="0px"
	 viewBox="0 0 860 350" style="enable-background:new 0 0 860 350;" xml:space="preserve">
<style type="text/css">
	.st0{clip-path:url(#SVGID_2_);}
	.st1{fill:#FF914C;}
	.st2{fill:#FFFFFF;}
</style>
<g>
	<defs>
		<rect id="SVGID_1_" x="0" width="860" height="350"/>
	</defs>
	<clipPath id="SVGID_2_">
		<use xlink:href="#SVGID_1_"  style="overflow:visible;"/>
	</clipPath>
	<rect x="0" class="st0" width="860" height="350"/>
	<g class="st0">
		<path class="st1" d="M359.4,169.1h-2.1c0-2.5-1.3-4.1-3.4-4.1c-2,0-3.5,1.3-3.5,3.1c0,2.2,1.6,3.2,4.5,3.2v5.7h-1.9v-3.9
			c-2.4-0.2-4.6-2.3-4.6-4.7c0-3.2,2.4-5.2,5.7-5.2C357.3,163.2,359.4,165.3,359.4,169.1z M355,180.6h-2.2v-2.4h2.2V180.6z"/>
		<path class="st1" d="M383.5,180.6h-0.4c-2.4,0-4.3-1.4-4.9-3.7c0,4.4-3.9,8-8.4,8c-4.9,0-8.6-4.1-8.6-9.5v-2.7h1.9v2.3
			c0,4.8,2.6,7.9,6.8,7.9c3.6,0,6.7-3,6.7-6.2c0-2.4-1.3-3.6-3.5-3.6v-1.7h0c0,0,0.5-0.1,1.4-0.1c1.6,0,3.8,1.7,4.7,3.8
			c1,2.5,1.9,3.4,3.8,3.4h0.6V180.6z M369.1,189.2h-1.9v-2.3h1.9V189.2z M372.6,189.2h-1.9v-2.3h1.9V189.2z"/>
		<path class="st1" d="M404.3,168.5v7.4c0,3.1-1.3,4.7-3.9,4.7h-17.6v-1.9h2.5c1.7,0,2.6-1.1,2.8-3.4v-6.8h1.9v7.4
			c0,1.1-0.2,2-0.5,2.7v0.1h3.5c1.7,0,2.3-0.8,2.3-3.6v-6.6h1.9v7.4c0,1.1-0.2,2.1-0.5,2.8h3.2c2,0,2.7-0.8,2.7-3.6v-6.6H404.3z
			 M395.4,166.6h-1.9v-2.3h1.9V166.6z M397.1,163.7h-1.9v-2.3h1.9V163.7z M398.9,166.6H397v-2.3h1.9V166.6z"/>
		<path class="st2" d="M415.2,182.7h-9.3V181h9.3V182.7z"/>
		<path class="st1" d="M440.6,180.6h-16.5c-5.1,0-7.6-2.6-7.6-7.7v-4.4h1.9v4.4c0,4,1.9,5.9,5.6,5.9h7.7c1.9,0,2.6-0.8,2.6-3.6
			v-11.7h1.9v12.5c0,1.1-0.2,2.1-0.5,2.8h4.9V180.6z M429.5,168.4l-1.3,0.1c-0.1-0.7-0.5-1.1-1.2-1.1c-0.9,0-1.3,0.6-1.3,1.8
			c0,0.5,0.1,0.9,0.3,1.2h3.5v1.3h-6.3v-1.3h1.3c-0.1-0.3-0.2-0.7-0.2-1.1c0-1.7,1-2.9,2.7-2.9C428.3,166.3,429.2,167,429.5,168.4z"
			/>
		<path class="st1" d="M465.2,180.6h-25.3v-1.9h2.5c1.9,0,2.8-1.4,2.8-4.1v-4.8h1.9v4.4c0,0.2,0,0.3,0,0.5c2-3.9,5.3-6.2,8.3-6.2
			c4.2,0,6.4,3,6.4,9v1.2h3.5V180.6z M459.7,178.8c0.1-0.6,0.1-1.1,0.1-1.7c0-4.1-1.7-6.9-4.6-6.9c-3.4,0-7.4,4.1-8.6,8.5H459.7z"/>
		<path class="st1" d="M479.5,174.6c0,3.5-2.2,6-5.5,6h-9.4v-1.9h5.2c-0.9-1.1-1.3-2.4-1.3-4.1c0-3.5,2.2-6,5.6-6
			C477.4,168.6,479.5,171,479.5,174.6z M477.5,174.4c0-2.7-1.2-4.3-3.4-4.3c-2.4,0-3.6,1.8-3.6,4.6c0,2.7,1.3,4.4,3.5,4.4
			C476.3,179.1,477.5,177.5,477.5,174.4z M473.2,166.6h-1.9v-2.3h1.9V166.6z M476.7,166.6h-1.9v-2.3h1.9V166.6z"/>
		<path class="st1" d="M488.9,180.6h-2.1c-1,0-1.8-0.3-2.4-1c-0.8-0.7-1.1-1.8-1.1-3.2v-13h1.9v11.8c0,1.2,0.2,2.1,0.5,2.6
			c0.3,0.5,0.8,0.7,1.5,0.8c0.2,0,0.4,0,1.7,0V180.6z"/>
		<path class="st1" d="M494.7,168.5v7.4c0,3.1-1.3,4.7-3.9,4.7h-2.3v-1.8h1.7c1.1,0,1.9-0.4,2.3-1.1c0.3-0.5,0.4-1.3,0.4-2.5v-6.6
			H494.7z M494.7,166.6h-1.9v-2.3h1.9V166.6z"/>
	</g>
	<g class="st0">
		<path class="st2" d="M503.8,182.5l0.7-5.2h-2.2v-1.6h2.4l0.5-3.8H503v-1.6h2.5l0.7-5.1h1.5l-0.7,5.1h2.8l0.7-5.1h1.6l-0.7,5.1h2.2
			v1.6h-2.4l-0.5,3.8h2.3v1.6h-2.5l-0.7,5.2h-1.6l0.7-5.2h-2.8l-0.7,5.2H503.8z M509.1,175.8l0.5-3.8h-2.8l-0.5,3.8H509.1z"/>
	</g>
</g>
</svg>
