<?xml version="1.0" encoding="utf-8"?>
<!-- Generator: Adobe Illustrator 22.0.1, SVG Export Plug-In . SVG Version: 6.00 Build 0)  -->
<svg version="1.1" id="Layer_1" xmlns="http://www.w3.org/2000/svg" xmlns:xlink="http://www.w3.org/1999/xlink" x="0px" y="0px"
	 viewBox="0 0 860 350" style="enable-background:new 0 0 860 350;" xml:space="preserve">
<style type="text/css">
	.st0{display:none;}
	.st1{fill:#FF914C;}
	.st2{fill:#FFFFFF;}
</style>
<rect x="0" class="st0" width="860" height="350"/>
<g>
	<g>
		<g>
			<path class="st1" d="M373.4,168.5h-2.1c0-2.5-1.3-4.1-3.4-4.1c-2.1,0-3.5,1.3-3.5,3.1c0,2.2,1.6,3.2,4.6,3.2v5.7h-1.9v-3.9
				c-2.4-0.2-4.7-2.3-4.7-4.7c0-3.2,2.4-5.2,5.7-5.2C371.3,162.6,373.4,164.8,373.4,168.5z M369,180.1h-2.2v-2.4h2.2V180.1z"/>
			<path class="st1" d="M397.6,180.1h-0.4c-2.4,0-4.3-1.4-5-3.7c0,4.4-3.9,8-8.5,8c-4.9,0-8.6-4.2-8.6-9.5v-2.7h1.9v2.3
				c0,4.8,2.6,8,6.8,8c3.6,0,6.7-3,6.7-6.2c0-2.4-1.3-3.6-3.5-3.6v-1.7h0c0,0,0.5-0.1,1.4-0.1c1.6,0,3.9,1.7,4.7,3.8
				c1,2.6,1.9,3.4,3.9,3.4h0.6V180.1z M383.2,188.7h-1.9v-2.3h1.9V188.7z M386.6,188.7h-1.9v-2.3h1.9V188.7z"/>
			<path class="st1" d="M411.1,180.1h-14.6v-1.9h4.1c-0.6-1-1-2.3-1-3.7c0-1.9,0.5-3.4,1.5-4.6c1-1.3,2.5-1.9,4.4-1.9
				c1.4,0,2.6,0.3,3.6,1c1.1,0.7,1.8,1.7,2.1,3.1l-2.3,0.2c-0.3-1.9-1.4-2.8-3.3-2.8c-1.3,0-2.3,0.5-2.9,1.6c-0.5,0.9-0.7,2-0.7,3.4
				c0,1.6,0.4,2.9,1.2,3.7h8V180.1z"/>
			<path class="st1" d="M416.5,180.1h-1.9v-17.2h1.9V180.1z"/>
			<path class="st1" d="M424.4,168v9.8c0,4.3-1.7,6.4-5.6,6.6v-1.8c2.5,0,3.7-1.4,3.7-4.5V168H424.4z"/>
			<path class="st2" d="M435.3,182.2H426v-1.7h9.3V182.2z"/>
			<path class="st1" d="M446.9,168v9.8c0,4.3-1.7,6.4-5.6,6.6v-1.8c2.5,0,3.7-1.4,3.7-4.5V168H446.9z"/>
			<path class="st1" d="M459.8,173.9v4c0,4.3-1.7,6.4-5.6,6.6v-1.8c2.5,0,3.7-1.5,3.8-4.5c-0.6,1-1.6,1.5-3.1,1.5
				c-2.9,0-5.1-2.4-5.1-5.9c0-3.4,2.1-5.9,5.1-5.9C457.7,167.9,459.8,170.4,459.8,173.9z M458,173.9c0-2.4-1.3-4.3-3.3-4.3
				c-1.9,0-3.1,1.9-3.1,4.2c0,2.4,1.3,4.3,3.3,4.3C456.7,178,458,176.2,458,173.9z"/>
			<path class="st1" d="M477.8,180.1h-16v-1.9h9.9c0-2.4-0.4-4.3-1.3-5.7c-1.1-1.7-2.7-2.6-4.9-2.8h-0.7V168c5.6,0,8.6,3.4,8.9,10.3
				h4.2V180.1z"/>
			<path class="st1" d="M483.6,168v7.4c0,3.1-1.3,4.7-3.9,4.7h-2.3v-1.8h1.7c1.1,0,1.9-0.4,2.3-1.1c0.3-0.5,0.4-1.3,0.4-2.6V168
				H483.6z M480.1,166.1h-1.9v-2.3h1.9V166.1z M483.6,166.1h-1.9v-2.3h1.9V166.1z"/>
		</g>
	</g>
	<g>
		<path class="st2" d="M493.2,182.4l0.7-5.2h-2.2v-1.6h2.4l0.5-3.9h-2.3v-1.6h2.5l0.7-5.1h1.5l-0.7,5.1h2.8l0.7-5.1h1.6l-0.7,5.1
			h2.2v1.6h-2.4l-0.5,3.9h2.3v1.6h-2.5l-0.7,5.2h-1.6l0.7-5.2h-2.8l-0.7,5.2H493.2z M498.5,175.6l0.5-3.9h-2.8l-0.5,3.9H498.5z"/>
	</g>
</g>
</svg>
