<?xml version="1.0" encoding="utf-8"?>
<!-- Generator: Adobe Illustrator 22.0.1, SVG Export Plug-In . SVG Version: 6.00 Build 0)  -->
<svg version="1.1" id="Layer_1" xmlns="http://www.w3.org/2000/svg" xmlns:xlink="http://www.w3.org/1999/xlink" x="0px" y="0px"
	 viewBox="0 0 1080 1080" style="enable-background:new 0 0 1080 1080;" xml:space="preserve">
<style type="text/css">
	.st0{clip-path:url(#SVGID_2_);}
	.st1{fill:#FF914C;}
	.st2{font-family:'GESSTwoLight-Light';}
	.st3{font-size:81.9186px;}
	.st4{clip-path:url(#SVGID_2_);fill:#1E1E1E;}
	.st5{opacity:0.6;clip-path:url(#SVGID_2_);}
	.st6{opacity:0.6;}
	.st7{opacity:0.3;clip-path:url(#SVGID_4_);}
	.st8{opacity:0.3;}
	.st9{clip-path:url(#SVGID_6_);}
	.st10{fill:none;stroke:#FF914C;stroke-width:0.25;stroke-miterlimit:10;}
	.st11{fill:#FFFFFF;}
	.st12{font-family:'MyriadPro-Regular';}
</style>
<g>
	<defs>
		<rect id="SVGID_1_" width="1080" height="1080"/>
	</defs>
	<clipPath id="SVGID_2_">
		<use xlink:href="#SVGID_1_"  style="overflow:visible;"/>
	</clipPath>
	<g class="st0">
		<text transform="matrix(1 0 0 1 549.8799 557.2783)" class="st1 st2 st3"> رودت</text>
	</g>
	<rect x="-1081" class="st4" width="3242" height="1080"/>
	<g class="st5">
		<defs>
			<rect id="SVGID_3_" x="-1064" class="st6" width="3225" height="1080"/>
		</defs>
		<clipPath id="SVGID_4_">
			<use xlink:href="#SVGID_3_"  style="overflow:visible;"/>
		</clipPath>
		<g class="st7">
			<defs>
				
					<rect id="SVGID_5_" x="-1074" y="-253" transform="matrix(-1 -1.224647e-16 1.224647e-16 -1 1495.762 1632.9082)" class="st8" width="3643.7" height="2138.9"/>
			</defs>
			<clipPath id="SVGID_6_">
				<use xlink:href="#SVGID_5_"  style="overflow:visible;"/>
			</clipPath>
			<g class="st9">
				<path class="st10" d="M2746.4,56.4c0,0-392,1278-874.1,336.7C1259.5-803.3,889,198.2,893.5,640.3
					c9.5,926-1463.8,877-1577.2,186.8"/>
				<path class="st10" d="M2744,56.5c0,0-390.6,1277.7-873.5,338.6c-613-1193.1-984.1-201.3-982,243
					c7,926-1461.3,872.5-1574.3,185.2"/>
				<path class="st10" d="M2741.7,56.6c0,0-389.1,1277.4-872.9,340.6C1255.5-792.6,882.5,189.5,883.4,635.9
					c1.9,926.1-1458.9,868-1571.4,183.6"/>
				<path class="st10" d="M2739.3,56.7c0,0-387.6,1277.1-872.3,342.5c-613.7-1186.5-987.8-214-988.7,234.5
					c-1.9,926.1-1456.5,863.4-1568.5,182"/>
				<path class="st10" d="M2737,56.9c0,0-386.1,1276.8-871.7,344.4c-614-1183.2-989.3-220.4-992,230.2
					c-5.6,926.2-1454,858.9-1565.6,180.4"/>
				<path class="st10" d="M2734.7,57c0,0-384.6,1276.5-871,346.3c-614.3-1179.9-990.8-226.8-995.4,226
					C859,1555.5-583.4,1483.7-694.4,808.1"/>
				<path class="st10" d="M2732.3,57.1c0,0-383.2,1276.3-870.4,348.3C1247.3-771.2,869.6,172.2,863.2,627.1
					c-13,926.2-1449.2,849.8-1559.8,177.2"/>
				<path class="st10" d="M2730,57.2c0,0-381.7,1276-869.8,350.2c-614.9-1173.3-993.8-239.6-1002,217.5
					c-16.7,926.2-1446.8,845.3-1556.8,175.5"/>
				<path class="st10" d="M2727.6,57.4c0,0-380.2,1275.7-869.2,352.1c-615.2-1170-995.3-245.9-1005.3,213.2
					c-20.3,926.2-1444.3,840.8-1553.9,173.9"/>
				<path class="st10" d="M2725.3,57.5c0,0-378.7,1275.4-868.6,354.1C1241.2-755.1,860,159.2,848,620.5
					c-23.9,926.2-1441.9,836.2-1551,172.3"/>
				<path class="st10" d="M2723,57.6c0,0-377.2,1275.1-868,356C1239.1-749.8,856.8,154.8,843,618.3
					C815.5,1544.5-596.5,1450-705.1,789"/>
				<path class="st10" d="M2720.6,57.7c0,0-375.8,1274.8-867.4,357.9C1237.1-744.4,853.6,150.5,837.9,616.1
					c-31.1,926.2-1437,827.2-1545.2,169.1"/>
				<path class="st10" d="M2718.3,57.9c0,0-376.2,1275.5-866.8,359.8C1232.6-737.8,850.4,146.1,832.9,613.9
					c-34.7,926.2-1434.6,822.6-1542.3,167.5"/>
				<path class="st10" d="M2715.9,58c0,0-374.9,1275.3-866.1,361.8c-619.5-1152.1-1002.6-278-1022,191.9
					c-38.2,926.2-1432.2,818.1-1539.4,165.9"/>
				<path class="st10" d="M2713.6,58.1c0,0-373.6,1275.1-865.5,363.7C1228.1-726.8,844,137.4,822.8,609.5
					C781.1,1535.6-607,1423-713.7,773.7"/>
				<path class="st10" d="M2711.3,58.3c0,0-372.3,1274.9-864.9,365.6C1225.9-721.4,840.9,133,817.7,607.3
					c-45.2,926.1-1427.3,809-1533.6,162.7"/>
				<path class="st10" d="M2708.9,58.4c0,0-370.9,1274.7-864.3,367.5c-621-1141.8-1006.9-297.3-1032,179.1
					C764,1531.1-612.2,1409.5-718,766.1"/>
				<path class="st10" d="M2706.6,58.5c0,0-369.6,1274.5-863.7,369.5C1221.4-710.4,834.6,124.2,807.6,602.9
					c-52.1,926-1422.5,799.9-1527.7,159.4"/>
				<path class="st10" d="M2704.3,58.6c0,0-368.3,1274.3-863.1,371.4C1219.2-705,831.4,119.8,802.6,600.7
					c-55.5,925.9-1420,795.4-1524.8,157.8"/>
				<path class="st10" d="M2701.9,58.8c0,0-366.9,1274.1-862.5,373.3C1217-699.5,828.3,115.4,797.5,598.4
					c-59,925.9-1417.6,790.9-1521.9,156.2"/>
				<path class="st10" d="M2699.6,58.9c0,0-365.6,1273.9-861.8,375.2C1214.7-694,825.1,111,792.4,596.2
					c-62.3,925.8-1415.2,786.3-1519,154.6"/>
				<path class="st10" d="M2697.2,59c0,0-364.3,1273.7-861.2,377.2C1212.5-688.6,822,106.6,787.4,594
					c-65.7,925.7-1412.7,781.8-1516.1,153"/>
				<path class="st10" d="M2694.9,59.1c0,0-362.9,1273.5-860.6,379.1c-624-1121.3-1015.4-336-1051.9,153.6
					C713.3,1517.5-628,1369.1-730.9,743.2"/>
				<path class="st10" d="M2692.6,59.3c0,0-361.6,1273.3-860,381C1208.1-677.7,815.7,97.8,777.3,589.6
					C704.9,1515.2-630.6,1362.4-733,739.4"/>
				<path class="st10" d="M2690.2,59.4c0,0-360.3,1273.1-859.4,382.9C1205.9-672.2,812.6,93.4,772.2,587.4
					c-75.7,925.5-1405.5,768.2-1507.4,148.2"/>
				<path class="st10" d="M2687.9,59.5c0,0-358.9,1272.9-858.8,384.9C1203.6-666.7,809.5,89,767.2,585.2
					c-79,925.4-1403,763.7-1504.5,146.6"/>
				<path class="st10" d="M2685.5,59.6c0,0-357.6,1272.7-858.2,386.8C1201.4-661.3,806.4,84.6,762.1,583
					c-82.3,925.3-1400.6,759.1-1501.6,145"/>
				<path class="st10" d="M2683.2,59.8c0,0-356.3,1272.4-857.6,388.7C1199.2-655.8,803.3,80.2,757.1,580.8
					c-85.5,925.3-1398.2,754.6-1498.6,143.3"/>
				<path class="st10" d="M2680.9,59.9c0,0-354.9,1272.2-856.9,390.7C1197-650.3,800.2,75.7,752,578.6
					c-88.7,925.2-1395.7,750.1-1495.7,141.7"/>
				<path class="st10" d="M2678.5,60c0,0-353.6,1272-856.3,392.6C1194.8-644.9,797.2,71.3,747,576.4
					c-92,925.1-1393.3,745.5-1492.8,140.1"/>
				<path class="st10" d="M2676.2,60.1c0,0-352.2,1271.8-855.7,394.5C1192.6-639.4,794.1,66.9,741.9,574.2
					c-95.2,925-1390.9,741-1489.9,138.5"/>
				<path class="st10" d="M2673.8,60.3c0,0-350.9,1271.6-855.1,396.4C1190.4-634,791,62.5,736.8,572
					c-98.3,924.9-1388.5,736.5-1487,136.9"/>
				<path class="st10" d="M2671.5,60.4c0,0-349.5,1271.4-854.5,398.4C1188.2-628.5,788,58,731.8,569.8
					c-101.5,924.8-1386,731.9-1484.1,135.3"/>
				<path class="st10" d="M2669.2,60.5c0,0-348.2,1271.2-853.9,400.3C1186-623,784.9,53.6,726.7,567.6
					C622.1,1492.2-656.9,1295-754.4,701.3"/>
				<path class="st10" d="M2666.8,60.6c0,0-346.8,1271-853.3,402.2C1183.8-617.6,781.9,49.2,721.7,565.4
					C613.9,1489.9-659.5,1288.2-756.6,697.5"/>
				<path class="st10" d="M2664.5,60.8c0,0-345.5,1270.8-852.7,404.1c-630.3-1077-1033-420.2-1095.2,98.3
					C605.7,1487.6-662.1,1281.5-758.7,693.6"/>
				<path class="st10" d="M2662.2,60.9c0,0-344.1,1270.6-852,406.1C1179.4-606.6,775.8,40.3,711.6,561
					c-114,924.3-1376.3,713.8-1472.5,128.9"/>
				<path class="st10" d="M2659.8,61c0,0-342.8,1270.4-851.4,408C1177.2-601.2,772.7,35.8,706.5,558.8
					C589.5,1483-667.4,1268-763,686"/>
				<path class="st10" d="M2657.5,61.2c0,0-341.4,1270.2-850.8,409.9C1175-595.7,769.7,31.4,701.5,556.6
					C581.4,1480.7-670,1261.3-765.2,682.2"/>
				<path class="st10" d="M2655.1,61.3c0,0-340.1,1270-850.2,411.8C1172.8-590.3,766.7,26.9,696.4,554.4
					c-123.2,924-1369,700.2-1463.7,124"/>
				<path class="st10" d="M2652.8,61.4c0,0-338.7,1269.8-849.6,413.8c-632.6-1060-1039.5-452.7-1111.8,77
					C565.2,1476-675.2,1247.8-769.5,674.6"/>
				<path class="st10" d="M2650.5,61.5c0,0-337.4,1269.6-849,415.7C1168.4-579.3,760.7,18,686.3,550
					C557.1,1473.7-677.9,1241.1-771.6,670.8"/>
				<path class="st10" d="M2648.1,61.7c0,0-336,1269.4-848.4,417.6C1166.2-573.9,757.7,13.6,681.2,547.8
					c-132.2,923.6-1361.7,686.6-1455,119.2"/>
				<path class="st10" d="M2645.8,61.8c0,0-334.6,1269.2-847.8,419.6C1164-568.4,754.7,9.1,676.2,545.5
					C541,1469-683.1,1227.6-775.9,663.1"/>
				<path class="st10" d="M2643.4,61.9c0,0-333.3,1269-847.1,421.5C1161.9-563,751.7,4.7,671.1,543.3
					C533,1466.7-685.7,1220.9-778,659.3"/>
				<path class="st10" d="M2641.1,62c0,0-331.9,1268.7-846.5,423.4C1159.7-557.5,748.7,0.2,666.1,541.1
					C525,1464.4-688.4,1214.1-780.2,655.5"/>
				<path class="st10" d="M2638.8,62.2c0,0-330.6,1268.5-845.9,425.3C1157.5-552.1,745.8-4.2,661,538.9
					C517,1462.1-691,1207.4-782.3,651.7"/>
				<path class="st10" d="M2636.4,62.3c0,0-329.2,1268.3-845.3,427.3C1155.3-546.6,742.8-8.7,656,536.7
					C509,1459.7-693.6,1200.6-784.5,647.9"/>
				<path class="st10" d="M2634.1,62.4c0,0-327.8,1268.1-844.7,429.2C1153.2-541.1,739.8-13.1,650.9,534.5
					C501.1,1457.4-696.2,1193.9-786.6,644.1"/>
				<path class="st10" d="M2631.7,62.5c0,0-326.5,1267.9-844.1,431.1C1151-535.7,736.9-17.6,645.9,532.3
					C493.1,1455.1-698.9,1187.2-788.8,640.2"/>
				<path class="st10" d="M2629.4,62.7c0,0-325.1,1267.7-843.5,433C1148.8-530.2,733.9-22,640.8,530.1
					C485.2,1452.8-701.5,1180.4-790.9,636.4"/>
				<path class="st10" d="M2627.1,62.8c0,0-323.7,1267.5-842.8,435C1146.6-524.8,731-26.5,635.8,527.9
					C477.3,1450.4-704.1,1173.7-793,632.6"/>
				<path class="st10" d="M2624.7,62.9c0,0-322.4,1267.3-842.2,436.9C1144.5-519.3,728.1-31,630.7,525.7
					C469.4,1448.1-706.7,1166.9-795.2,628.8"/>
				<path class="st10" d="M2622.4,63c0,0-321,1267.1-841.6,438.8C1142.3-513.9,725.1-35.4,625.6,523.5
					c-164.2,922.3-1335,636.7-1423,101.5"/>
				<path class="st10" d="M2620,63.2c0,0-319.6,1266.9-841,440.7C1140.1-508.4,722.2-39.9,620.6,521.3
					c-167,922.1-1332.6,632.2-1420.1,99.9"/>
				<path class="st10" d="M2617.7,63.3c0,0-318.2,1266.7-840.4,442.7C1138-503,719.3-44.3,615.5,519.1
					c-169.8,922-1330.2,627.6-1417.2,98.3"/>
				<path class="st10" d="M2615.4,63.4c0,0-316.9,1266.5-839.8,444.6C1135.8-497.5,716.4-48.8,610.5,516.9
					C437.9,1438.8-717.2,1140-803.8,613.5"/>
				<path class="st10" d="M2613,63.5c0,0-315.5,1266.3-839.2,446.5C1133.7-492,713.5-53.3,605.4,514.7
					c-175.4,921.8-1325.3,618.6-1411.3,95"/>
				<path class="st10" d="M2610.7,63.7c0,0-314.1,1266.1-838.6,448.4C1131.5-486.6,710.6-57.7,600.4,512.5
					c-178.2,921.7-1322.9,614-1408.4,93.4"/>
				<path class="st10" d="M2608.4,63.8c0,0-312.7,1265.8-837.9,450.4C1129.3-481.1,707.7-62.2,595.3,510.3
					c-180.9,921.5-1320.4,609.5-1405.5,91.8"/>
				<path class="st10" d="M2606,63.9c0,0-311.3,1265.6-837.3,452.3C1127.2-475.7,704.8-66.6,590.3,508.1
					c-183.7,921.4-1318,605-1402.6,90.2"/>
				<path class="st10" d="M2603.7,64c0,0-309.9,1265.4-836.7,454.2C1125-470.2,701.9-71.1,585.2,505.9
					c-186.4,921.3-1315.6,600.4-1399.7,88.6"/>
				<path class="st10" d="M2601.3,64.2c0,0-308.6,1265.2-836.1,456.2C1122.9-464.8,699.1-75.5,580.2,503.7
					C391,1424.8-733,1099.6-816.6,590.7"/>
				<path class="st10" d="M2599,64.3c0,0-307.2,1265-835.5,458.1C1120.7-459.3,696.2-80,575.1,501.5
					c-191.8,921.1-1310.7,591.3-1393.9,85.4"/>
				<path class="st10" d="M2596.7,64.4c0,0-305.8,1264.8-834.9,460C1118.6-453.9,693.3-84.5,570,499.3
					c-194.5,920.9-1308.3,586.8-1391,83.8"/>
				<path class="st10" d="M2594.3,64.6c0,0-304.4,1264.6-834.3,461.9C1116.5-448.4,690.5-88.9,565,497.1
					c-197.2,920.8-1305.9,582.3-1388.1,82.2"/>
				<path class="st10" d="M2592,64.7c0,0-303,1264.4-833.7,463.9C1114.3-443,687.6-93.4,559.9,494.9
					C360,1415.6-743.5,1072.6-825.2,575.4"/>
				<path class="st10" d="M2589.6,64.8c0,0-301.6,1264.2-833,465.8C1112.2-437.5,684.8-97.8,554.9,492.6
					c-202.6,920.6-1301,573.2-1382.2,78.9"/>
				<path class="st10" d="M2587.3,64.9c0,0-300.2,1264-832.4,467.7C1110-432.1,682-102.3,549.8,490.4
					c-205.2,920.5-1298.6,568.7-1379.3,77.3"/>
				<path class="st10" d="M2585,65.1c0,0-298.8,1263.7-831.8,469.6c-645.2-961.3-1074-641.4-1208.4-46.5
					C336.9,1408.6-751.4,1052.4-831.7,564"/>
				<path class="st10" d="M2582.6,65.2c0,0-297.4,1263.5-831.2,471.6c-645.7-958-1075.1-648-1211.7-50.7
					C329.2,1406.3-754,1045.6-833.8,560.1"/>
				<path class="st10" d="M2580.3,65.3c0,0-296,1263.3-830.6,473.5c-646.1-954.6-1076.2-654.5-1215-55
					C321.6,1404-756.6,1038.9-835.9,556.3"/>
				<path class="st10" d="M2577.9,65.4c0,0-294.6,1263.1-830,475.4c-646.5-951.2-1077.3-661-1218.4-59.2
					c-215.7,920.1-1288.9,550.5-1367.7,70.9"/>
				<path class="st10" d="M2575.6,65.6c0,0-293.2,1262.9-829.4,477.3C1099.4-404.9,667.9-124.6,524.6,479.4
					c-218.3,920-1286.4,546-1364.8,69.3"/>
				<path class="st10" d="M2573.3,65.7c0,0-291.8,1262.7-828.7,479.3c-647.3-944.4-1079.4-674-1225-67.7
					c-220.9,919.9-1284,541.5-1361.9,67.7"/>
				<path class="st10" d="M2570.9,65.8c0,0-290.4,1262.5-828.1,481.2C1095.1-394,662.3-133.5,514.4,475
					c-223.5,919.8-1281.6,536.9-1359,66.1"/>
				<path class="st10" d="M2568.6,65.9c0,0-289,1262.2-827.5,483.1C1093-388.5,659.5-137.9,509.4,472.8
					c-226.1,919.7-1279.1,532.4-1356.1,64.5"/>
				<path class="st10" d="M2566.2,66.1c0,0-287.6,1262-826.9,485c-648.4-934.2-1082.6-693.5-1235-80.5
					C275.7,1390.2-772.4,998.5-848.8,533.5"/>
				<path class="st10" d="M2563.9,66.2c0,0-286.2,1261.8-826.3,487C1088.8-377.7,654-146.8,499.3,468.4
					C268.1,1387.9-775,991.7-851,529.6"/>
				<path class="st10" d="M2561.6,66.3c0,0-284.8,1261.6-825.7,488.9c-649.2-927.4-1084.7-706.5-1241.7-89
					C260.5,1385.6-777.6,985-853.1,525.8"/>
				<path class="st10" d="M2559.2,66.4c0,0-283.4,1261.4-825.1,490.8c-649.6-924.1-1085.7-713-1245-93.3
					C252.9,1383.3-780.3,978.3-855.2,522"/>
				<path class="st10" d="M2556.9,66.6c0,0-282,1261.2-824.5,492.8c-650-920.7-1086.8-719.5-1248.3-97.5
					C245.4,1381-782.9,971.5-857.4,518.2"/>
				<path class="st10" d="M2554.6,66.7c0,0-280.5,1260.9-823.8,494.7c-650.4-917.3-1087.8-726-1251.6-101.8
					C237.8,1378.7-785.5,964.8-859.5,514.4"/>
				<path class="st10" d="M2552.2,66.8c0,0-279.1,1260.7-823.2,496.6C1078.2-350.5,640.2-169,474,457.4
					C230.2,1376.4-788.1,958-861.7,510.6"/>
				<path class="st10" d="M2549.9,66.9c0,0-277.7,1260.5-822.6,498.5C1076.1-345,637.4-173.5,469,455.2
					c-246.3,919-1259.7,496.1-1332.8,51.6"/>
				<path class="st10" d="M2547.5,67.1c0,0-276.3,1260.3-822,500.5C1074-339.6,634.7-177.9,463.9,453
					C215.1,1371.8-793.4,944.6-866,502.9"/>
				<path class="st10" d="M2545.2,67.2c0,0-274.9,1260.1-821.4,502.4C1071.9-334.2,632-182.3,458.8,450.8
					c-251.2,918.8-1254.8,487-1327,48.4"/>
				<path class="st10" d="M2542.9,67.3c0,0-273.4,1259.9-820.8,504.3C1069.8-328.7,629.2-186.8,453.8,448.6
					c-253.7,918.7-1252.4,482.5-1324,46.7"/>
				<path class="st10" d="M2540.5,67.5c0,0-272,1259.6-820.2,506.2c-652.6-897-1093.8-764.9-1271.6-127.3
					c-256.2,918.6-1250,478-1321.1,45.1"/>
				<path class="st10" d="M2538.2,67.6c0,0-270.6,1259.4-819.6,508.2c-653-893.6-1094.8-771.4-1274.9-131.6
					C185,1362.7-803.9,917.6-874.5,487.7"/>
				<path class="st10" d="M2535.8,67.7c0,0-269.2,1259.2-818.9,510.1C1063.5-312.4,621.1-200.1,438.6,442
					C177.5,1360.5-806.5,910.9-876.7,483.9"/>
				<path class="st10" d="M2533.5,67.8c0,0-267.7,1259-818.3,512C1061.4-307,618.4-204.5,433.6,439.7
					C170,1358.2-809.1,904.1-878.8,480.1"/>
				<path class="st10" d="M2531.2,68c0,0-266.3,1258.7-817.7,513.9C1059.3-301.6,615.7-208.9,428.5,437.5
					C162.6,1355.9-811.8,897.4-881,476.2"/>
				<path class="st10" d="M2528.8,68.1c0,0-264.9,1258.5-817.1,515.9C1057.3-296.1,613-213.3,423.5,435.3
					C155.1,1353.7-814.4,890.6-883.1,472.4"/>
				<path class="st10" d="M2526.5,68.2c0,0-263.4,1258.3-816.5,517.8C1055.2-290.7,610.4-217.8,418.4,433.1
					C147.6,1351.4-817,883.9-885.3,468.6"/>
				<path class="st10" d="M2524.1,68.3c0,0-262,1258.1-815.9,519.7C1053.1-285.3,607.7-222.2,413.4,430.9
					c-273.2,918.2-1233,446.2-1300.8,33.9"/>
				<path class="st10" d="M2521.8,68.5c0,0-260.5,1257.8-815.3,521.7C1051-279.9,605-226.6,408.3,428.7
					C132.7,1346.9-822.3,870.4-889.6,461"/>
				<path class="st10" d="M2519.5,68.6c0,0-259.1,1257.6-814.7,523.6C1048.9-274.4,602.3-231,403.2,426.5
					c-278,918.1-1228.1,437.2-1294.9,30.6"/>
				<path class="st10" d="M2517.1,68.7c0,0-257.7,1257.4-814,525.5C1046.9-269,599.7-235.4,398.2,424.3
					c-280.4,918.1-1225.7,432.6-1292,29"/>
				<path class="st10" d="M2514.8,68.8c0,0-256.2,1257.2-813.4,527.4C1044.8-263.6,597-239.9,393.1,422.1
					C110.4,1340.1-830.1,850.2-896,449.5"/>
				<path class="st10" d="M2512.5,69c0,0-254.8,1256.9-812.8,529.4C1042.7-258.2,594.4-244.3,388.1,419.9
					c-285.1,918-1220.8,423.6-1286.2,25.8"/>
				<path class="st10" d="M2510.1,69.1c0,0-253.3,1256.7-812.2,531.3C1040.6-252.8,591.7-248.7,383,417.7
					c-287.5,917.9-1218.4,419-1283.3,24.2"/>
				<path class="st10" d="M2507.8,69.2c0,0-251.9,1256.5-811.6,533.2C1038.6-247.3,589.1-253.1,378,415.5
					C88.1,1333.4-838,830-902.4,438.1"/>
				<path class="st10" d="M2505.4,69.3c0,0-250.4,1256.2-811,535.1c-657.9-846.4-1108-862-1321.5-191.2
					c-292.2,917.9-1213.5,410-1277.5,21"/>
				<path class="st10" d="M2503.1,69.5c0,0-249,1256-810.4,537.1c-658.3-843-1108.9-868.4-1324.9-195.4
					C73.3,1328.9-843.3,816.5-906.7,430.5"/>
				<path class="st10" d="M2500.8,69.6c0,0-247.5,1255.8-809.7,539C1032.4-231.1,581.2-266.3,362.8,408.9
					C65.9,1326.7-845.9,809.8-908.9,426.7"/>
				<path class="st10" d="M2498.4,69.7c0,0-246.1,1255.5-809.1,540.9C1030.3-225.7,578.6-270.7,357.8,406.7
					C58.5,1324.4-848.5,803-911,422.8"/>
				<path class="st10" d="M2496.1,69.8c0,0-244.6,1255.3-808.5,542.8C1028.3-220.3,576-275.1,352.7,404.5
					C51.1,1322.2-851.1,796.3-913.1,419"/>
				<path class="st10" d="M2493.7,70c0,0-243.2,1255.1-807.9,544.8C1026.2-214.9,573.4-279.5,347.6,402.3
					C43.8,1320-853.8,789.6-915.3,415.2"/>
				<path class="st10" d="M2491.4,70.1c0,0-241.7,1254.8-807.3,546.7C1024.2-209.5,570.8-283.9,342.6,400.1
					c-306.2,917.7-1199,382.8-1260,11.3"/>
				<path class="st10" d="M2489.1,70.2c0,0-240.2,1254.6-806.7,548.6C1022.1-204,568.2-288.3,337.5,397.9
					C29,1315.6-859,776.1-919.6,407.6"/>
				<path class="st10" d="M2486.7,70.4c0,0-238.8,1254.3-806.1,550.5C1020.1-198.6,565.6-292.6,332.5,395.7
					C21.7,1313.3-861.6,769.3-921.7,403.8"/>
				<path class="st10" d="M2484.4,70.5c0,0-237.3,1254.1-805.5,552.5C1018-193.2,563-297,327.4,393.5
					C14.3,1311.1-864.3,762.6-923.9,400"/>
				<path class="st10" d="M2482,70.6c0,0-235.8,1253.9-804.8,554.4C1016-187.8,560.4-301.4,322.4,391.3
					C7,1308.9-866.9,755.9-926,396.1"/>
				<path class="st10" d="M2479.7,70.7c0,0-234.4,1253.6-804.2,556.3c-661.5-809.5-1117.6-932.8-1358.2-238
					C-0.4,1306.7-869.5,749.1-928.2,392.3"/>
				<path class="st10" d="M2477.4,70.9c0,0-232.9,1253.4-803.6,558.3C1011.9-177,555.3-310.2,312.3,386.8
					c-320,917.6-1184.4,355.5-1242.6,1.7"/>
				<path class="st10" d="M2475,71c0,0-231.4,1253.1-803,560.2C1009.9-171.6,552.7-314.5,307.2,384.6
					c-322.2,917.7-1182,351-1239.7,0.1"/>
				<path class="st10" d="M2472.7,71.1c0,0-230,1252.9-802.4,562.1C1007.8-166.2,550.2-318.9,302.2,382.4
					c-324.5,917.7-1179.5,346.5-1236.7-1.6"/>
				<path class="st10" d="M2470.3,71.2c0,0-228.5,1252.6-801.8,564c-662.8-796.1-1121-958.5-1371.5-255
					C-29.7,1297.9-880,722.2-936.7,377.1"/>
				<path class="st10" d="M2468,71.4c0,0-227,1252.4-801.2,566C1003.8-155.4,545.1-327.7,292,378
					c-329,917.7-1174.7,337.4-1230.9-4.8"/>
				<path class="st10" d="M2465.7,71.5c0,0-225.5,1252.1-800.6,567.9C1001.7-150,542.5-332,287,375.8
					c-331.3,917.7-1172.3,332.9-1228-6.4"/>
				<path class="st10" d="M2463.3,71.6c0,0-224,1251.9-799.9,569.8C999.7-144.6,540-336.4,281.9,373.6
					c-333.5,917.7-1169.8,328.3-1225.1-8"/>
				<path class="st10" d="M2461,71.7c0,0-222.6,1251.6-799.3,571.7C997.7-139.2,537.4-340.7,276.9,371.4
					c-335.8,917.7-1167.4,323.8-1222.2-9.6"/>
				<path class="st10" d="M2458.7,71.9c0,0-221.1,1251.4-798.7,573.7C995.7-133.8,534.9-345.1,271.8,369.2
					C-66.2,1287-893.1,688.5-947.5,358"/>
				<path class="st10" d="M2456.3,72c0,0-219.6,1251.1-798.1,575.6C993.6-128.5,532.4-349.5,266.8,367
					C-73.5,1284.8-895.8,681.7-949.6,354.2"/>
				<path class="st10" d="M2454,72.1c0,0-218.1,1250.9-797.5,577.5C991.6-123.1,529.9-353.8,261.7,364.8
					C-80.8,1282.6-898.4,675-951.8,350.4"/>
				<path class="st10" d="M2451.6,72.2c0,0-216.6,1250.6-796.9,579.4C989.6-117.7,527.3-358.2,256.7,362.6
					C-88,1280.4-901,668.3-953.9,346.6"/>
				<path class="st10" d="M2449.3,72.4c0,0-215.1,1250.4-796.3,581.4C987.6-112.3,524.8-362.5,251.6,360.4
					C-95.3,1278.3-903.6,661.5-956,342.7"/>
				<path class="st10" d="M2447,72.5c0,0-213.6,1250.1-795.7,583.3C985.6-106.9,522.3-366.8,246.5,358.2
					c-349.1,917.9-1152.8,296.6-1204.7-19.3"/>
				<path class="st10" d="M2444.6,72.6c0,0-212.1,1249.8-795,585.2C983.6-101.5,519.8-371.2,241.5,356
					C-109.8,1273.9-908.9,648-960.3,335.1"/>
				<path class="st10" d="M2442.3,72.7c0,0-210.6,1249.6-794.4,587.1C981.6-96.2,517.3-375.5,236.4,353.8
					c-353.6,918-1148,287.5-1198.9-22.5"/>
				<path class="st10" d="M2439.9,72.9c0,0-209.1,1249.3-793.8,589.1C979.6-90.8,514.8-379.9,231.4,351.6
					c-355.8,918-1145.5,283-1196-24.1"/>
				<path class="st10" d="M2437.6,73c0,0-207.6,1249.1-793.2,591C977.6-85.4,512.3-384.2,226.3,349.4
					c-358,918.1-1143.1,278.5-1193.1-25.7"/>
				<path class="st10" d="M2435.3,73.1c0,0-206.1,1248.8-792.6,592.9C975.6-80,509.9-388.5,221.3,347.2
					c-360.1,918.1-1140.7,273.9-1190.2-27.3"/>
				<path class="st10" d="M2432.9,73.2c0,0-204.6,1248.5-792,594.9C973.6-74.7,507.4-392.8,216.2,345
					C-146.1,1263.1-922,614.4-971.1,316"/>
				<path class="st10" d="M2430.6,73.4c0,0-203.1,1248.3-791.4,596.8C971.6-69.3,504.9-397.2,211.2,342.8
					C-153.4,1261-924.6,607.6-973.2,312.2"/>
				<path class="st10" d="M2428.2,73.5c0,0-201.6,1248-790.7,598.7C969.6-63.9,502.4-401.5,206.1,340.6
					c-366.7,918.3-1133.4,260.3-1181.5-32.1"/>
				<path class="st10" d="M2425.9,73.6c0,0-200.1,1247.7-790.1,600.6C967.6-58.5,500-405.8,201.1,338.4
					c-368.9,918.4-1131,255.8-1178.5-33.8"/>
				<path class="st10" d="M2423.6,73.8c0,0-198.6,1247.4-789.5,602.6C965.6-53.2,497.5-410.1,196,336.2
					c-371.1,918.4-1128.5,251.2-1175.6-35.4"/>
				<path class="st10" d="M2421.2,73.9c0,0-197.1,1247.2-788.9,604.5C963.6-47.8,495.1-414.4,190.9,333.9
					c-373.2,918.5-1126.1,246.7-1172.7-37"/>
				<path class="st10" d="M2418.9,74c0,0-195.6,1246.9-788.3,606.4C961.6-42.5,492.6-418.8,185.9,331.7
					c-375.4,918.6-1123.7,242.2-1169.8-38.6"/>
				<path class="st10" d="M2416.6,74.1c0,0-194,1246.6-787.7,608.3C959.6-37.1,490.2-423.1,180.8,329.5
					c-377.6,918.6-1121.2,237.6-1166.9-40.2"/>
				<path class="st10" d="M2414.2,74.3c0,0-192.5,1246.3-787.1,610.3C957.6-31.7,487.7-427.4,175.8,327.3
					c-379.7,918.7-1118.8,233.1-1164-41.8"/>
				<path class="st10" d="M2411.9,74.4c0,0-191,1246-786.5,612.2C955.7-26.4,485.3-431.7,170.7,325.1
					c-381.9,918.8-1116.4,228.6-1161.1-43.4"/>
				<path class="st10" d="M2409.5,74.5c0,0-189.5,1245.8-785.8,614.1C953.7-21,482.8-436,165.7,322.9
					c-384,918.9-1113.9,224-1158.2-45"/>
				<path class="st10" d="M2407.2,74.6c0,0-188,1245.5-785.2,616C951.7-15.7,480.4-440.3,160.6,320.7
					c-386.2,919-1111.5,219.5-1155.3-46.6"/>
				<path class="st10" d="M2404.9,74.8c0,0-186.4,1245.2-784.6,618C949.7-10.3,478-444.6,155.6,318.5
					c-388.3,919.1-1109.1,215-1152.4-48.2"/>
				<path class="st10" d="M2402.5,74.9c0,0-184.9,1244.9-784,619.9C947.8-5,475.6-448.9,150.5,316.3
					C-240,1235.5-956.1,526.7-998.9,266.5"/>
				<path class="st10" d="M2400.2,75c0,0-183.4,1244.6-783.4,621.8C945.8,0.4,473.1-453.1,145.5,314.1
					C-247.2,1233.4-958.8,520-1001.1,262.6"/>
				<path class="st10" d="M2397.8,75.1c0,0-181.8,1244.3-782.8,623.7C943.8,5.7,470.7-457.4,140.4,311.9
					c-394.8,919.4-1101.8,201.4-1143.6-53.1"/>
				<path class="st10" d="M2395.5,75.3c0,0-180.3,1244-782.2,625.7C941.8,11.1,468.3-461.7,135.3,309.7
					C-261.5,1229.2-964,506.5-1005.4,255"/>
				<path class="st10" d="M2393.2,75.4c0,0-178.8,1243.7-781.6,627.6C939.9,16.4,465.9-466,130.3,307.5
					c-399,919.6-1096.9,192.3-1137.8-56.3"/>
				<path class="st10" d="M2390.8,75.5c0,0-177.2,1243.4-780.9,629.5C937.9,21.7,463.5-470.3,125.2,305.3
					C-275.9,1225-969.3,493.1-1009.7,247.4"/>
				<path class="st10" d="M2388.5,75.6c0,0-175.7,1243.1-780.3,631.5c-672.2-680-1147-1181.6-1488-404
					c-403.3,919.8-1092.1,183.2-1132-59.5"/>
				<path class="st10" d="M2386.1,75.8c0,0-174.2,1242.8-779.7,633.4C934,32.4,458.7-478.8,115.1,300.9
					c-405.4,919.9-1089.7,178.7-1129.1-61.1"/>
				<path class="st10" d="M2383.8,75.9c0,0-172.6,1242.5-779.1,635.3C932,37.7,456.3-483.1,110.1,298.7
					c-407.5,920-1087.2,174.2-1126.2-62.7"/>
				<path class="st10" d="M2381.5,76c0,0-171.1,1242.2-778.5,637.2C930.1,43.1,454-487.3,105,296.5
					c-409.6,920.1-1084.8,169.6-1123.3-64.3"/>
				<path class="st10" d="M2379.1,76.1c0,0-169.5,1241.9-777.9,639.2C928.1,48.4,451.6-491.6,100,294.3
					c-411.7,920.3-1082.4,165.1-1120.3-66"/>
				<path class="st10" d="M2376.8,76.3c0,0-168,1241.6-777.3,641.1C926.2,53.7,449.2-495.9,94.9,292.1
					C-318.9,1212.5-985,452.6-1022.5,224.5"/>
				<path class="st10" d="M2374.4,76.4c0,0-166.4,1241.3-776.6,643C924.2,59,446.8-500.1,89.9,289.9
					c-416,920.5-1077.5,156-1114.5-69.2"/>
				<path class="st10" d="M2372.1,76.5c0,0-164.9,1241-776,644.9C922.3,64.4,444.5-504.4,84.8,287.7
					c-418.1,920.7-1075.1,151.5-1111.6-70.8"/>
				<path class="st10" d="M2369.8,76.7c0,0-163.3,1240.6-775.4,646.9C920.3,69.7,442.1-508.6,79.7,285.5
					C-340.4,1206.3-992.9,432.4-1029,213.1"/>
				<path class="st10" d="M2367.4,76.8c0,0-161.8,1240.3-774.8,648.8C918.4,75,439.7-512.9,74.7,283.3
					c-422.3,920.9-1070.2,142.4-1105.8-74"/>
				<path class="st10" d="M2365.1,76.9c0,0-160.2,1240-774.2,650.7C916.4,80.3,437.4-517.1,69.6,281
					c-424.4,921.1-1067.8,137.9-1102.9-75.6"/>
				<path class="st10" d="M2362.8,77c0,0-158.7,1239.7-773.6,652.6C914.5,85.6,435-521.3,64.6,278.8
					c-426.5,921.2-1065.4,133.3-1100-77.2"/>
				<path class="st10" d="M2360.4,77.2c0,0-157.1,1239.3-773,654.6C912.6,90.9,432.7-525.6,59.5,276.6
					C-369,1198-1003.4,405.4-1037.5,197.8"/>
				<path class="st10" d="M2358.1,77.3c0,0-155.5,1239-772.4,656.5C910.6,96.2,430.3-529.8,54.5,274.4
					C-376.2,1196-1006,398.7-1039.7,194"/>
				<path class="st10" d="M2355.7,77.4c0,0-154,1238.7-771.7,658.4C908.7,101.5,428-534,49.4,272.2
					c-432.7,921.7-1058.1,119.7-1091.2-82.1"/>
				<path class="st10" d="M2353.4,77.5c0,0-152.4,1238.3-771.1,660.4C906.8,106.8,425.6-538.3,44.4,270
					c-434.8,921.8-1055.6,115.2-1088.3-83.7"/>
				<path class="st10" d="M2351.1,77.7c0,0-150.8,1238-770.5,662.3C904.8,112.1,423.3-542.5,39.3,267.8
					c-436.9,922-1053.2,110.7-1085.4-85.3"/>
				<path class="st10" d="M2348.7,77.8c0,0-149.3,1237.7-769.9,664.2C902.9,117.4,421-546.7,34.3,265.6
					c-439,922.2-1050.8,106.1-1082.5-86.9"/>
				<path class="st10" d="M2346.4,77.9c0,0-147.7,1237.3-769.3,666.1C901,122.7,418.6-550.9,29.2,263.4
					c-441.1,922.3-1048.4,101.6-1079.6-88.5"/>
				<path class="st10" d="M2344,78c0,0-146.1,1237-768.7,668.1C899,128,416.3-555.2,24.1,261.2
					c-443.1,922.5-1045.9,97.1-1076.7-90.1"/>
				<path class="st10" d="M2341.7,78.2c0,0-144.6,1236.6-768.1,670C897.1,133.3,414-559.4,19.1,259
					c-445.2,922.7-1043.5,92.5-1073.8-91.7"/>
				<path class="st10" d="M2339.4,78.3c0,0-143,1236.3-767.5,671.9C895.2,138.6,411.7-563.6,14,256.8
					c-447.3,922.8-1041.1,88-1070.9-93.3"/>
				<path class="st10" d="M2337,78.4c0,0-141.4,1235.9-766.8,673.8C893.3,143.9,409.4-567.8,9,254.6
					c-449.4,923-1038.6,83.5-1068-94.9"/>
				<path class="st10" d="M2334.7,78.5c0,0-139.8,1235.6-766.2,675.8C891.4,149.2,407-572,3.9,252.4
					c-451.4,923.2-1036.2,78.9-1065.1-96.6"/>
				<path class="st10" d="M2332.3,78.7c0,0-138.2,1235.2-765.6,677.7C889.4,154.4,404.7-576.2-1.1,250.2
					c-453.5,923.4-1033.8,74.4-1062.1-98.2"/>
				<path class="st10" d="M2330,78.8c0,0-136.7,1234.9-765,679.6C887.5,159.7,402.4-580.4-6.2,248
					c-455.6,923.6-1031.4,69.9-1059.2-99.8"/>
				<path class="st10" d="M2327.7,78.9c0,0-135.1,1234.5-764.4,681.5C885.6,165,400.1-584.6-11.2,245.8
					c-457.6,923.7-1028.9,65.3-1056.3-101.4"/>
				<path class="st10" d="M2325.3,79c0,0-133.5,1234.1-763.8,683.5C883.7,170.3,397.8-588.8-16.3,243.6
					c-459.7,923.9-1026.5,60.8-1053.4-103"/>
				<path class="st10" d="M2323,79.2c0,0-131.9,1233.8-763.2,685.4C881.8,175.5,395.5-593-21.3,241.4
					c-461.8,924.1-1024.1,56.3-1050.5-104.6"/>
				<path class="st10" d="M2320.7,79.3c0,0-130.3,1233.4-762.6,687.3C879.9,180.8,393.3-597.1-26.4,239.2
					C-490.2,1163.5-1048,290.9-1074,133"/>
				<path class="st10" d="M2318.3,79.4c0,0-128.7,1233-761.9,689.2C878,186.1,391-601.3-31.5,237
					c-465.9,924.5-1019.2,47.2-1044.7-107.8"/>
				<path class="st10" d="M2316,79.6c0,0-127.1,1232.7-761.3,691.2C876.1,191.3,388.7-605.5-36.5,234.8
					c-467.9,924.7-1016.8,42.7-1041.8-109.4"/>
				<path class="st10" d="M2313.6,79.7c0,0-125.6,1232.3-760.7,693.1C874.1,196.6,386.4-609.7-41.6,232.6
					c-470,924.9-1014.3,38.1-1038.9-111"/>
				<path class="st10" d="M2311.3,79.8c0,0-124,1231.9-760.1,695C872.2,201.8,384.1-613.9-46.6,230.4
					c-472,925.1-1011.9,33.6-1036-112.7"/>
				<path class="st10" d="M2309,79.9c0,0-122.4,1231.5-759.5,697C870.3,207.1,381.9-618-51.7,228.1
					c-474.1,925.3-1009.5,29-1033-114.3"/>
				<path class="st10" d="M2306.6,80.1c0,0-120.8,1231.1-758.9,698.9C868.4,212.3,379.6-622.2-56.7,225.9
					c-476.1,925.6-1007.1,24.5-1030.1-115.9"/>
				<path class="st10" d="M2304.3,80.2c0,0-119.2,1230.7-758.3,700.8C866.5,217.6,377.3-626.4-61.8,223.7
					c-478.2,925.8-1004.6,20-1027.2-117.5"/>
				<path class="st10" d="M2301.9,80.3c0,0-117.6,1230.3-757.6,702.7C864.6,222.8,375-630.5-66.8,221.5
					c-480.2,926-1002.2,15.4-1024.3-119.1"/>
				<path class="st10" d="M2299.6,80.4c0,0-116,1229.9-757,704.7C862.7,228,372.8-634.7-71.9,219.3
					c-482.3,926.2-999.8,10.9-1021.4-120.7"/>
				<path class="st10" d="M2297.3,80.6c0,0-114.4,1229.5-756.4,706.6c-680-553.9-1170.3-1426-1617.8-570
					c-484.3,926.4-997.3,6.4-1018.5-122.3"/>
				<path class="st10" d="M2294.9,80.7c0,0-112.8,1229.1-755.8,708.5C858.9,238.5,368.3-643-82,214.9
					c-486.4,926.7-994.9,1.8-1015.6-123.9"/>
				<path class="st10" d="M2292.6,80.8c0,0-111.1,1228.7-755.2,710.4C857,243.7,366-647.1-87.1,212.7
					c-488.4,926.9-992.5-2.7-1012.7-125.5"/>
				<path class="st10" d="M2290.2,80.9c0,0-109.5,1228.3-754.6,712.4C855.2,249,363.8-651.3-92.1,210.5
					c-490.4,927.1-990.1-7.2-1009.8-127.1"/>
				<path class="st10" d="M2287.9,81.1c0,0-107.9,1227.9-754,714.3C853.3,254.2,361.5-655.4-97.2,208.3
					c-492.5,927.4-987.6-11.8-1006.9-128.8"/>
				<path class="st10" d="M2285.6,81.2c0,0-106.3,1227.5-753.4,716.2c-680.8-538-1172.9-1457-1634.4-591.3
					c-494.5,927.6-985.2-16.3-1003.9-130.4"/>
				<path class="st10" d="M2283.2,81.3c0,0-104.7,1227.1-752.7,718.1C849.5,264.6,357-663.7-107.3,203.9
					c-496.5,927.8-982.8-20.8-1001-132"/>
				<path class="st10" d="M2280.9,81.4c0,0-103.1,1226.7-752.1,720.1C847.6,269.8,354.8-667.8-112.3,201.7
					c-498.6,928.1-980.3-25.4-998.1-133.6"/>
				<path class="st10" d="M2278.5,81.6c0,0-101.5,1226.2-751.5,722C845.7,275.1,352.6-672-117.4,199.5
					c-500.6,928.3-977.9-29.9-995.2-135.2"/>
				<path class="st10" d="M2276.2,81.7c0,0-99.9,1225.8-750.9,723.9C843.8,280.3,350.3-676.1-122.4,197.3
					c-502.6,928.6-975.5-34.4-992.3-136.8"/>
				<path class="st10" d="M2273.9,81.8c0,0-98.2,1225.4-750.3,725.8C841.9,285.5,348.1-680.2-127.5,195.1
					c-504.7,928.8-973.1-39-989.4-138.4"/>
				<path class="st10" d="M2271.5,81.9c0,0-96.6,1224.9-749.7,727.8C840,290.7,345.9-684.4-132.5,192.9
					c-506.7,929.1-970.6-43.5-986.5-140"/>
				<path class="st10" d="M2269.2,82.1c0,0-95,1224.5-749.1,729.7C838.2,295.9,343.7-688.5-137.6,190.7
					c-508.7,929.3-968.2-48-983.6-141.6"/>
				<path class="st10" d="M2266.9,82.2c0,0-93.4,1224.1-748.5,731.6C836.3,301.1,341.4-692.6-142.7,188.5
					c-510.8,929.6-965.8-52.6-980.7-143.2"/>
				<path class="st10" d="M2264.5,82.3c0,0-91.8,1223.6-747.8,733.6C834.4,306.2,339.2-696.7-147.7,186.3
					c-512.8,929.9-963.3-57.1-977.8-144.9"/>
				<path class="st10" d="M2262.2,82.5c0,0-90.1,1223.2-747.2,735.5C832.5,311.4,337-700.8-152.8,184.1
					c-514.8,930.1-960.9-61.6-974.8-146.5"/>
				<path class="st10" d="M2259.8,82.6c0,0-88.5,1222.7-746.6,737.4C830.6,316.6,334.8-704.9-157.8,181.9
					c-516.8,930.4-958.5-66.2-971.9-148.1"/>
				<path class="st10" d="M2257.5,82.7c0,0-86.9,1222.2-746,739.3C828.7,321.8,332.6-709-162.9,179.7
					c-518.9,930.7-956-70.7-969-149.7"/>
				<path class="st10" d="M2255.2,82.8c0,0-85.3,1221.8-745.4,741.3C826.9,327,330.4-713.1-167.9,177.5
					c-520.9,930.9-953.6-75.3-966.1-151.3"/>
				<path class="st10" d="M2252.8,83c0,0-83.6,1221.3-744.8,743.2C825,332.2,328.2-717.2-173,175.2
					c-522.9,931.2-951.2-79.8-963.2-152.9"/>
				<path class="st10" d="M2250.5,83.1c0,0-82,1220.9-744.2,745.1C823.1,337.3,326-721.3-178,173
					c-524.9,931.5-948.8-84.3-960.3-154.5"/>
				<path class="st10" d="M2248.1,83.2c0,0-80.4,1220.4-743.6,747C821.2,342.5,323.8-725.4-183.1,170.8
					c-527,931.8-946.3-88.9-957.4-156.1"/>
				<path class="st10" d="M2245.8,83.3c0,0-78.8,1219.9-742.9,749C819.4,347.7,321.6-729.5-188.1,168.6
					c-529,932.1-943.9-93.4-954.5-157.7"/>
				<path class="st10" d="M2243.5,83.5c0,0-77.1,1219.4-742.3,750.9C817.5,352.8,319.4-733.6-193.2,166.4
					c-531,932.3-941.5-97.9-951.6-159.3"/>
				<path class="st10" d="M2241.1,83.6c0,0-75.5,1218.9-741.7,752.8C815.6,358,317.2-737.7-198.3,164.2
					c-533,932.6-939-102.5-948.7-161"/>
				<path class="st10" d="M2238.8,83.7c0,0-73.9,1218.5-741.1,754.7C813.7,363.1,315-741.8-203.3,162
					c-535,932.9-936.6-107-945.7-162.6"/>
				<path class="st10" d="M2236.4,83.8c0,0-72.2,1218-740.5,756.7C811.8,368.3,312.8-745.8-208.4,159.8
					c-537,933.2-934.2-111.5-942.8-164.2"/>
				<path class="st10" d="M2234.1,84c0,0-70.6,1217.5-739.9,758.6C810,373.4,310.6-749.9-213.4,157.6
					c-539.1,933.5-931.8-116.1-939.9-165.8"/>
				<path class="st10" d="M2231.8,84.1c0,0-68.9,1217-739.3,760.5C808.1,378.6,308.5-754-218.5,155.4
					c-541.1,933.8-929.3-120.6-937-167.4"/>
				<path class="st10" d="M2229.4,84.2c0,0-67.3,1216.5-738.6,762.4C806.2,383.7,306.3-758.1-223.5,153.2
					c-543.1,934.1-926.9-125.1-934.1-169"/>
				<path class="st10" d="M2227.1,84.3c0,0-65.7,1216-738,764.4C804.3,388.8,304.1-762.1-228.6,151
					C-773.7,1085.4-1153,21.3-1159.8-19.6"/>
				<path class="st10" d="M2224.7,84.5c0,0-64,1215.5-737.4,766.3c-684.9-456.8-1185.4-1617-1721-702
					c-547.1,934.7-922-134.2-928.3-172.2"/>
				<path class="st10" d="M2222.4,84.6c0,0-62.4,1214.9-736.8,768.2C800.6,399.1,299.8-770.3-238.7,146.6
					c-549.1,935-919.6-138.7-925.4-173.8"/>
				<path class="st10" d="M2220.1,84.7c0,0-60.8,1214.4-736.2,770.2C798.7,404.2,297.6-774.3-243.7,144.4
					c-551.1,935.3-917.2-143.3-922.5-175.4"/>
				<path class="st10" d="M2217.7,84.8c0,0-59.1,1213.9-735.6,772.1C796.9,409.3,295.4-778.4-248.8,142.2
					c-553.1,935.6-914.7-147.8-919.6-177.1"/>
				<path class="st10" d="M2215.4,85c0,0-57.5,1213.4-735,774C795,414.5,293.3-782.4-253.9,140c-555.2,936-912.3-152.3-916.6-178.7"
					/>
				<path class="st10" d="M2213.1,85.1c0,0-55.8,1212.8-734.4,775.9C793.1,419.6,291.1-786.5-258.9,137.8
					c-557.2,936.3-909.9-156.9-913.7-180.3"/>
				<path class="st10" d="M2210.7,85.2c0,0-54.2,1212.3-733.7,777.9C791.2,424.7,288.9-790.5-264,135.6
					c-559.2,936.6-907.5-161.4-910.8-181.9"/>
				<path class="st10" d="M2208.4,85.3c0,0-52.5,1211.8-733.1,779.8C789.4,429.8,286.8-794.6-269,133.4
					c-561.2,936.9-905-165.9-907.9-183.5"/>
				<path class="st10" d="M2206,85.5c0,0-50.1,1209.9-732.5,781.7C788.3,433.6,284.6-798.6-274.1,131.2
					c-563.2,937.2-902.6-170.5-905-185.1"/>
				<path class="st10" d="M2203.7,85.6c0,0-48.6,1209.6-731.9,783.6C786.3,438.9,284.3-801.5-279.1,129
					c-563.3,938.7-900.2-175-902.1-186.7"/>
				<path class="st10" d="M2201.4,85.7c0,0-47.1,1209.3-731.3,785.6C784.2,444.3,281.7-805.8-284.2,126.8
					C-850,1065.5-1181.9-52.8-1183.4-61.6"/>
				<path class="st10" d="M2199,85.9c0,0-45.6,1209-730.7,787.5C782.2,449.6,279.1-810.1-289.2,124.5
					c-568.3,938.8-895.3-184.1-896.3-189.9"/>
				<path class="st10" d="M2196.7,86c0,0-44.2,1208.7-730.1,789.4C780.2,455,276.5-814.5-294.3,122.3
					C-865,1061.2-1187.2-66.3-1187.7-69.2"/>
				<path class="st10" d="M2194.3,86.1c0,0-42.7,1208.4-729.5,791.3S273.9-818.8-299.3,120.1S-1189.8-73-1189.8-73"/>
			</g>
		</g>
	</g>
	<g class="st0">
		<text transform="matrix(1 0 0 1 549.8799 557.2783)" class="st1 st2 st3"> رودت</text>
	</g>
	<g class="st0">
		<text transform="matrix(1 0 0 1 719.166 564.2783)" class="st11 st12 st3">#</text>
	</g>
</g>
</svg>
