<?xml version="1.0" encoding="utf-8"?>
<!-- Generator: Adobe Illustrator 22.0.1, SVG Export Plug-In . SVG Version: 6.00 Build 0)  -->
<svg version="1.1" id="Layer_1" xmlns="http://www.w3.org/2000/svg" xmlns:xlink="http://www.w3.org/1999/xlink" x="0px" y="0px"
	 viewBox="0 0 1080 1080" style="enable-background:new 0 0 1080 1080;" xml:space="preserve">
<style type="text/css">
	.st0{clip-path:url(#SVGID_2_);}
	.st1{fill:#FF914C;}
	.st2{font-family:'GESSTwoLight-Light';}
	.st3{font-size:81.9186px;}
	.st4{fill:#FFFFFF;}
	.st5{font-family:'MyriadPro-Regular';}
	.st6{clip-path:url(#SVGID_2_);fill:#FFFFFF;}
	.st7{fill-rule:evenodd;clip-rule:evenodd;fill:#FFFFFF;}
	.st8{font-family:'Nexa-Black';}
	.st9{font-size:40.5792px;}
	.st10{clip-path:url(#SVGID_2_);fill:#1E1E1E;}
	.st11{opacity:0.6;clip-path:url(#SVGID_2_);}
	.st12{opacity:0.6;}
	.st13{opacity:0.3;clip-path:url(#SVGID_4_);}
	.st14{opacity:0.3;}
	.st15{clip-path:url(#SVGID_6_);}
	.st16{fill:none;stroke:#FF914C;stroke-width:0.25;stroke-miterlimit:10;}
	.st17{clip-path:url(#SVGID_2_);fill:#FF914C;}
</style>
<g>
	<defs>
		<rect id="SVGID_1_" width="1080" height="1080"/>
	</defs>
	<clipPath id="SVGID_2_">
		<use xlink:href="#SVGID_1_"  style="overflow:visible;"/>
	</clipPath>
	<g class="st0">
		<text transform="matrix(1 0 0 1 495.6123 557.2783)" class="st1 st2 st3">كصقان</text>
	</g>
	<g class="st0">
		<text transform="matrix(1 0 0 1 760.166 563.2783)" class="st4 st5 st3">#</text>
	</g>
	<rect x="100" y="940" transform="matrix(-1 -1.224647e-16 1.224647e-16 -1 218 1937)" class="st6" width="18" height="57"/>
	<g class="st0">
		<g>
			<g>
				<g>
					<path class="st4" d="M185.8,958.2c-1.3,0.6-2.8,1-4.3,1.2c0.7-0.1,1.7-1.4,2.1-1.9c0.6-0.8,1.1-1.7,1.4-2.6
						c0-0.1,0.1-0.2,0-0.2c-0.1,0-0.2,0-0.2,0c-1.6,0.9-3.3,1.5-5.1,1.9c-0.1,0-0.3,0-0.4-0.1c-0.1-0.2-0.3-0.3-0.4-0.5
						c-0.8-0.6-1.6-1.1-2.5-1.5c-1.2-0.5-2.5-0.7-3.8-0.6c-1.3,0.1-2.5,0.4-3.6,1c-1.1,0.6-2.1,1.4-2.9,2.4c-0.8,1-1.4,2.2-1.7,3.5
						c-0.3,1.2-0.3,2.4-0.1,3.7c0,0.2,0,0.2-0.2,0.2c-7-1-12.8-3.5-17.5-8.9c-0.2-0.2-0.3-0.2-0.5,0c-2.1,3.1-1.1,8,1.5,10.5
						c0.3,0.3,0.7,0.6,1.1,0.9c-0.1,0-1.9-0.2-3.4-0.9c-0.2-0.1-0.3-0.1-0.3,0.2c0,0.3,0,0.6,0.1,1c0.4,3.1,2.6,6,5.5,7.2
						c0.4,0.1,0.7,0.3,1.1,0.3c-0.7,0.1-1.4,0.3-3.3,0.1c-0.2,0-0.3,0.1-0.2,0.3c1.5,4,4.6,5.2,7,5.8c0.3,0.1,0.6,0.1,0.9,0.1
						c0,0,0,0-0.1,0.1c-0.8,1.2-3.5,2.1-4.8,2.5c-2.3,0.8-4.8,1.2-7.2,0.9c-0.4-0.1-0.5-0.1-0.6,0c-0.1,0.1,0,0.2,0.1,0.3
						c0.5,0.3,1,0.6,1.5,0.9c1.5,0.8,3.1,1.5,4.8,1.9c8.7,2.4,18.4,0.6,24.9-5.8c5.1-5.1,6.9-12.1,6.9-19.1c0-0.3,0.3-0.4,0.5-0.6
						c1.3-1,2.4-2.2,3.4-3.5c0.2-0.3,0.2-0.6,0.2-0.7c0,0,0,0,0,0C186,958,186,958.1,185.8,958.2z"/>
				</g>
				<g>
					<path class="st7" d="M156.2,988.8C159.8,988.8,156.3,988.8,156.2,988.8C156.6,988.8,156.1,988.8,156.2,988.8z"/>
				</g>
				<g>
					<path class="st7" d="M156.2,988.8C156.1,988.8,155.5,988.8,156.2,988.8C156.2,988.8,156.1,988.8,156.2,988.8z"/>
				</g>
				<g>
					<path class="st7" d="M157.6,988.8C157.6,988.7,158.3,988.8,157.6,988.8C157.6,988.8,157.7,988.8,157.6,988.8z"/>
				</g>
				<g>
					<path class="st7" d="M172.6,954c0,0-0.1,0-0.2,0C172.5,954,172.6,954,172.6,954z"/>
				</g>
			</g>
		</g>
	</g>
	<g class="st0">
		<g>
			<g>
				<g>
					<path class="st4" d="M205.3,980.8c0-0.2,0-0.4,0-0.7c0.3-0.3,0.5-0.6,1-0.7c3.4-0.7,5.7-2.9,7.4-5.7c1.5-2.4,1.2-3-1.5-3.9
						c-0.2-0.1-0.3-0.1-0.5-0.2c-0.6-0.2-1.1-0.5-1.6-0.9c-1.2-1-0.5-2.5,0.9-2.9c1-0.2,1.9,0.4,2.9,0.5c0.7,0.1,0.9-0.1,0.9-0.9
						c-0.2-1.8-0.2-3.7-0.1-5.5c0.2-3.5,1.9-6.2,4.8-7.9c4.3-2.5,8.8-2.6,13.1,0c2.7,1.6,4.4,4,4.8,7.2c0.2,2.1,0.1,4.2,0,6.3
						c-0.1,0.9,0.1,1.1,1,0.9c1.1-0.3,2-0.8,3.2-0.3c0.6,0.3,1.2,0.9,1.1,1.5c0,0.5-0.3,0.9-0.6,1.2c-0.5,0.5-1.2,0.7-1.9,1
						c-0.5,0.2-1,0.4-1.5,0.6c-1,0.5-1.3,1.1-0.8,2.1c1.6,3.5,4,6.1,7.9,7c0.5,0.1,0.9,0.3,1.1,0.7c0,0.2,0,0.4,0,0.7
						c-0.4,0.8-1,1.2-1.8,1.5c-0.8,0.3-1.5,0.6-2.3,0.7c-1.1,0.1-1.7,0.6-1.9,1.7c-0.2,1.1-0.5,1.3-1.6,1.2c-0.3,0-0.5-0.1-0.8-0.1
						c-2.2-0.4-4.3-0.2-6.2,1.3c-0.4,0.3-0.8,0.5-1.1,0.8c-3.1,2-6.3,2.3-9.6,0.4c-0.9-0.5-1.7-1.1-2.6-1.7
						c-0.7-0.5-1.5-0.7-2.3-0.9c-1.4-0.2-2.6,0.1-4,0.2c-0.7,0.1-1.3-0.1-1.4-0.8c-0.1-1.7-1.1-2.1-2.5-2.3
						c-0.7-0.1-1.3-0.3-1.9-0.6C206.3,981.9,205.6,981.5,205.3,980.8z"/>
				</g>
			</g>
		</g>
	</g>
	<g class="st0">
		<g>
			<path class="st4" d="M303.6,958.2c-1.3,0-2.3,1-2.3,2.3c0,1.3,1,2.3,2.3,2.3c1.3,0,2.3-1,2.3-2.3
				C305.9,959.2,304.9,958.2,303.6,958.2z M293.2,961.2c-5.4,0-9.8,4.4-9.8,9.8c0,5.4,4.4,9.8,9.8,9.8s9.8-4.4,9.8-9.8
				C303,965.6,298.6,961.2,293.2,961.2z M293.2,977.3c-3.5,0-6.3-2.8-6.3-6.3s2.8-6.3,6.3-6.3s6.3,2.8,6.3,6.3
				S296.7,977.3,293.2,977.3z M313,962.8c0-6.6-5.4-12-12-12h-15.8c-6.6,0-12,5.4-12,12v15.8c0,6.6,5.4,12,12,12H301
				c6.6,0,12-5.4,12-12V962.8z M309.3,978.6c0,4.5-3.7,8.2-8.2,8.2h-15.8c-4.5,0-8.2-3.7-8.2-8.2v-15.8c0-4.5,3.7-8.2,8.2-8.2H301
				c4.5,0,8.2,3.7,8.2,8.2V978.6z"/>
		</g>
	</g>
	<g class="st0">
		<text transform="matrix(1 0 0 1 341.3838 985.3789)" class="st4 st8 st9">@ ULINK0</text>
	</g>
	<rect x="-1" class="st10" width="3242" height="1080"/>
	<g class="st11">
		<defs>
			<rect id="SVGID_3_" x="-1" class="st12" width="3242" height="1080"/>
		</defs>
		<clipPath id="SVGID_4_">
			<use xlink:href="#SVGID_3_"  style="overflow:visible;"/>
		</clipPath>
		<g class="st13">
			<defs>
				
					<rect id="SVGID_5_" x="-11" y="-253" transform="matrix(-1 -1.224647e-16 1.224647e-16 -1 3640.864 1632.9082)" class="st14" width="3662.9" height="2138.9"/>
			</defs>
			<clipPath id="SVGID_6_">
				<use xlink:href="#SVGID_5_"  style="overflow:visible;"/>
			</clipPath>
			<g class="st15">
				<path class="st16" d="M3829.4,56.4c0,0-394.1,1278-878.7,336.7c-615.9-1196.4-988.4-194.9-983.9,247.3
					c9.6,926-1471.5,877-1585.5,186.8"/>
				<path class="st16" d="M3827.1,56.5c0,0-392.6,1277.7-878.1,338.6c-616.3-1193.1-989.3-201.3-987.2,243
					c7.1,926-1469,872.5-1582.6,185.2"/>
				<path class="st16" d="M3824.7,56.6c0,0-391.1,1277.4-877.5,340.6c-616.6-1189.8-991.5-207.6-990.6,238.7
					c1.9,926.1-1466.6,868-1579.7,183.6"/>
				<path class="st16" d="M3822.4,56.7c0,0-389.6,1277.1-876.9,342.5c-616.9-1186.5-993-214-993.9,234.5
					c-1.9,926.1-1464.2,863.4-1576.8,182"/>
				<path class="st16" d="M3820,56.9c0,0-388.2,1276.8-876.2,344.4c-617.2-1183.2-994.5-220.4-997.3,230.2
					c-5.6,926.2-1461.7,858.9-1573.8,180.4"/>
				<path class="st16" d="M3817.7,57c0,0-386.7,1276.5-875.6,346.3c-617.5-1179.9-996-226.8-1000.6,226
					c-9.4,926.2-1459.3,854.4-1570.9,178.8"/>
				<path class="st16" d="M3815.3,57.1c0,0-385.2,1276.3-875,348.3c-617.8-1176.6-997.5-233.2-1003.9,221.7
					c-13.1,926.2-1456.8,849.8-1568,177.2"/>
				<path class="st16" d="M3813,57.2c0,0-383.7,1276-874.4,350.2c-618.2-1173.3-999-239.6-1007.3,217.5
					c-16.7,926.2-1454.4,845.3-1565.1,175.5"/>
				<path class="st16" d="M3810.6,57.4c0,0-382.2,1275.7-873.8,352.1c-618.5-1170-1000.5-246-1010.6,213.2
					c-20.4,926.2-1451.9,840.8-1562.1,173.9"/>
				<path class="st16" d="M3808.3,57.5c0,0-380.7,1275.4-873.2,354.1c-618.8-1166.7-1002-252.4-1014,208.9
					c-24.1,926.2-1449.5,836.2-1559.2,172.3"/>
				<path class="st16" d="M3805.9,57.6c0,0-379.2,1275.1-872.6,356C2314.3-749.8,1929.9,154.8,1916,618.3
					C1888.4,1544.5,469,1450,359.8,789"/>
				<path class="st16" d="M3803.6,57.7c0,0-377.7,1274.8-871.9,357.9C2312.2-744.4,1926.7,150.5,1911,616.1
					c-31.3,926.2-1444.6,827.2-1553.3,169.1"/>
				<path class="st16" d="M3801.2,57.9c0,0-378.2,1275.5-871.3,359.8c-622.2-1155.5-1006.4-271.6-1024,196.2
					C1871,1540.1,463.7,1436.5,355.5,781.4"/>
				<path class="st16" d="M3798.9,58c0,0-376.9,1275.3-870.7,361.8c-622.7-1152-1007.9-278-1027.4,191.9
					c-38.4,926.2-1439.7,818.1-1547.5,165.9"/>
				<path class="st16" d="M3796.5,58.1c0,0-375.5,1275.1-870.1,363.7C2303.2-726.8,1917.1,137.4,1895.7,609.5
					C1853.8,1535.6,458.4,1423,351.1,773.7"/>
				<path class="st16" d="M3794.2,58.3c0,0-374.2,1274.9-869.5,365.6C2301-721.3,1913.9,133,1890.6,607.3
					c-45.4,926.1-1434.8,809-1541.6,162.7"/>
				<path class="st16" d="M3791.8,58.4c0,0-372.9,1274.7-868.9,367.5C2298.7-715.9,1910.7,128.6,1885.6,605.1
					c-48.9,926-1432.4,804.5-1538.7,161.1"/>
				<path class="st16" d="M3789.5,58.5c0,0-371.5,1274.5-868.2,369.5C2296.5-710.4,1907.6,124.2,1880.5,602.9
					c-52.4,926-1430,799.9-1535.8,159.4"/>
				<path class="st16" d="M3787.1,58.6c0,0-370.2,1274.3-867.6,371.4C2294.2-705,1904.4,119.8,1875.4,600.7
					c-55.8,925.9-1427.5,795.4-1532.9,157.8"/>
				<path class="st16" d="M3784.8,58.8c0,0-368.9,1274.1-867,373.3C2292-699.5,1901.2,115.4,1870.3,598.4
					C1811,1524.3,445.2,1389.3,340.4,754.7"/>
				<path class="st16" d="M3782.4,58.9c0,0-367.5,1273.9-866.4,375.2C2289.8-694,1898.1,111,1865.2,596.2
					c-62.7,925.8-1422.6,786.3-1527,154.6"/>
				<path class="st16" d="M3780.1,59c0,0-366.2,1273.7-865.8,377.2C2287.5-688.6,1894.9,106.6,1860.2,594
					C1794.1,1519.8,440,1375.8,336.1,747"/>
				<path class="st16" d="M3777.7,59.1c0,0-364.8,1273.5-865.2,379.1c-627.3-1121.3-1020.8-336-1057.5,153.6
					c-69.4,925.7-1417.8,777.3-1521.2,151.4"/>
				<path class="st16" d="M3775.4,59.3c0,0-363.5,1273.3-864.5,381C2283.1-677.6,1888.7,97.8,1850,589.6
					c-72.8,925.6-1415.3,772.7-1518.2,149.8"/>
				<path class="st16" d="M3773,59.4c0,0-362.2,1273.1-863.9,382.9C2280.8-672.2,1885.5,93.4,1844.9,587.4
					C1768.8,1512.9,432,1355.6,329.6,735.6"/>
				<path class="st16" d="M3770.7,59.5c0,0-360.8,1272.9-863.3,384.9C2278.6-666.7,1882.4,89,1839.8,585.2
					c-79.4,925.4-1410.4,763.7-1512.4,146.6"/>
				<path class="st16" d="M3768.3,59.6c0,0-359.5,1272.7-862.7,386.8C2276.4-661.2,1879.3,84.6,1834.7,583
					c-82.7,925.3-1408,759.1-1509.5,145"/>
				<path class="st16" d="M3766,59.8c0,0-358.1,1272.5-862.1,388.7C2274.2-655.8,1876.2,80.1,1829.7,580.8
					c-86,925.2-1405.5,754.6-1506.5,143.3"/>
				<path class="st16" d="M3763.6,59.9c0,0-356.8,1272.3-861.5,390.7C2271.9-650.3,1873.1,75.7,1824.6,578.6
					C1735.4,1503.8,421.5,1328.7,321,720.3"/>
				<path class="st16" d="M3761.3,60c0,0-355.4,1272.1-860.8,392.6C2269.7-644.9,1870,71.3,1819.5,576.4
					c-92.4,925-1400.7,745.5-1500.7,140.1"/>
				<path class="st16" d="M3758.9,60.1c0,0-354.1,1271.9-860.2,394.5c-631.2-1094-1031.8-387.8-1084.2,119.6
					c-95.7,924.9-1398.2,741-1497.8,138.5"/>
				<path class="st16" d="M3756.5,60.3c0,0-352.7,1271.6-859.6,396.4C2265.3-633.9,1863.8,62.4,1809.3,572
					c-98.9,924.8-1395.8,736.5-1494.8,136.9"/>
				<path class="st16" d="M3754.2,60.4c0,0-351.4,1271.4-859,398.4C2263.1-628.5,1860.7,58,1804.3,569.8
					c-102,924.7-1393.3,731.9-1491.9,135.3"/>
				<path class="st16" d="M3751.8,60.5c0,0-350,1271.2-858.4,400.3C2260.9-623,1857.7,53.6,1799.2,567.6
					C1694,1492.2,408.3,1295,310.2,701.3"/>
				<path class="st16" d="M3749.5,60.6c0,0-348.7,1271-857.8,402.2C2258.6-617.5,1854.6,49.1,1794.1,565.4
					C1685.8,1489.9,405.6,1288.2,308,697.5"/>
				<path class="st16" d="M3747.1,60.8c0,0-347.3,1270.8-857.1,404.1c-633.6-1077-1038.5-420.2-1101,98.3
					c-111.5,924.4-1386,718.3-1483.1,130.5"/>
				<path class="st16" d="M3744.8,60.9c0,0-345.9,1270.6-856.5,406.1c-634-1073.6-1039.8-426.7-1104.3,94
					c-114.6,924.3-1383.6,713.8-1480.2,128.9"/>
				<path class="st16" d="M3742.4,61c0,0-344.6,1270.4-855.9,408C2252-601.2,1845.4,35.8,1778.9,558.8
					C1661.2,1482.9,397.7,1268,301.6,686"/>
				<path class="st16" d="M3740.1,61.2c0,0-343.2,1270.2-855.3,409.9c-635-1066.8-1042.4-439.7-1111,85.5
					C1653,1480.6,395.1,1261.3,299.4,682.2"/>
				<path class="st16" d="M3737.7,61.3c0,0-341.9,1270-854.7,411.8C2247.6-590.2,1839.4,26.9,1768.7,554.4
					c-123.8,923.9-1376.2,700.2-1471.4,124"/>
				<path class="st16" d="M3735.4,61.4c0,0-340.5,1269.8-854.1,413.8c-635.9-1059.9-1045-452.7-1117.7,77
					C1636.8,1476,389.8,1247.8,295.1,674.6"/>
				<path class="st16" d="M3733,61.5c0,0-339.1,1269.6-853.5,415.7C2243.2-579.3,1833.3,18,1758.5,550
					c-129.9,923.7-1371.4,691.1-1465.6,120.8"/>
				<path class="st16" d="M3730.7,61.7c0,0-337.8,1269.4-852.8,417.6C2241-573.9,1830.3,13.6,1753.4,547.8
					c-132.9,923.6-1368.9,686.6-1462.7,119.2"/>
				<path class="st16" d="M3728.3,61.8c0,0-336.4,1269.2-852.2,419.6C2238.8-568.4,1827.3,9.1,1748.4,545.5
					c-135.9,923.5-1366.5,682-1459.7,117.6"/>
				<path class="st16" d="M3726,61.9c0,0-335,1269-851.6,421.5c-637.8-1046.3-1050.1-478.7-1131.1,60
					c-138.9,923.3-1364,677.5-1456.8,116"/>
				<path class="st16" d="M3723.6,62c0,0-333.7,1268.8-851,423.4C2234.4-557.5,1821.3,0.2,1738.2,541.1
					c-141.8,923.2-1361.6,673-1453.9,114.4"/>
				<path class="st16" d="M3721.3,62.2c0,0-332.3,1268.6-850.4,425.3C2232.2-552,1818.3-4.3,1733.1,538.9
					C1588.4,1462,374,1207.4,282.2,651.7"/>
				<path class="st16" d="M3718.9,62.3c0,0-330.9,1268.4-849.8,427.3C2230-546.6,1815.3-8.7,1728,536.7
					c-147.7,923-1356.7,663.9-1448,111.1"/>
				<path class="st16" d="M3716.6,62.4c0,0-329.5,1268.2-849.1,429.2C2227.9-541.1,1812.4-13.2,1723,534.5
					c-150.6,922.8-1354.3,659.4-1445.1,109.5"/>
				<path class="st16" d="M3714.2,62.5c0,0-328.2,1268-848.5,431.1c-640-1029.3-1056.3-511.3-1147.8,38.7
					C1564.3,1455,366.1,1187.2,275.7,640.2"/>
				<path class="st16" d="M3711.9,62.7c0,0-326.8,1267.7-847.9,433C2223.5-530.2,1806.4-22.1,1712.8,530.1
					c-156.4,922.6-1349.4,650.3-1439.3,106.3"/>
				<path class="st16" d="M3709.5,62.8c0,0-325.4,1267.5-847.3,435C2221.3-524.7,1803.5-26.5,1707.7,527.9
					c-159.3,922.4-1346.9,645.8-1436.3,104.7"/>
				<path class="st16" d="M3707.2,62.9c0,0-324,1267.3-846.7,436.9C2219.1-519.3,1800.5-31,1702.6,525.7
					C1540.5,1448,358.1,1166.9,269.2,628.8"/>
				<path class="st16" d="M3704.8,63c0,0-322.6,1267.1-846.1,438.8C2217-513.8,1797.6-35.5,1697.6,523.5
					c-165,922.2-1342,636.7-1430.5,101.5"/>
				<path class="st16" d="M3702.5,63.2c0,0-321.3,1266.9-845.4,440.7C2214.8-508.4,1794.6-39.9,1692.5,521.3
					c-167.9,922.1-1339.6,632.2-1427.6,99.9"/>
				<path class="st16" d="M3700.1,63.3c0,0-319.9,1266.7-844.8,442.7C2212.6-502.9,1791.7-44.4,1687.4,519.1
					C1516.7,1441,350.2,1146.7,262.8,617.4"/>
				<path class="st16" d="M3697.8,63.4c0,0-318.5,1266.5-844.2,444.6c-643.1-1005.5-1064.8-556.9-1171.2,8.9
					C1508.8,1438.7,347.6,1140,260.6,613.5"/>
				<path class="st16" d="M3695.4,63.5c0,0-317.1,1266.3-843.6,446.5c-643.6-1002.1-1066-563.4-1174.6,4.6
					c-176.3,921.7-1332.3,618.6-1418.8,95"/>
				<path class="st16" d="M3693.1,63.7c0,0-315.7,1266.1-843,448.4c-644-998.7-1067.1-569.9-1177.9,0.4
					c-179.1,921.6-1329.8,614-1415.9,93.4"/>
				<path class="st16" d="M3690.7,63.8c0,0-314.3,1265.9-842.4,450.4C2203.9-481.1,1780-62.2,1667.1,510.3
					c-181.8,921.5-1327.4,609.5-1412.9,91.8"/>
				<path class="st16" d="M3688.4,63.9c0,0-312.9,1265.7-841.7,452.3C2201.8-475.6,1777.1-66.7,1662,508.1
					c-184.6,921.3-1325,605-1410,90.2"/>
				<path class="st16" d="M3686,64c0,0-311.6,1265.5-841.1,454.2c-645.3-988.5-1070.6-589.4-1188-12.4
					c-187.4,921.2-1322.5,600.4-1407.1,88.6"/>
				<path class="st16" d="M3683.7,64.2c0,0-310.2,1265.3-840.5,456.2c-645.7-985.1-1071.8-595.9-1191.3-16.7
					c-190.1,921.1-1320.1,595.9-1404.2,87"/>
				<path class="st16" d="M3681.3,64.3c0,0-308.8,1265-839.9,458.1c-646.1-981.7-1072.9-602.5-1194.7-20.9
					c-192.8,921-1317.6,591.3-1401.2,85.4"/>
				<path class="st16" d="M3679,64.4c0,0-307.4,1264.8-839.3,460c-646.5-978.3-1074.1-609-1198-25.2
					C1446.1,1420.1,326.5,1086.1,243.4,583"/>
				<path class="st16" d="M3676.6,64.6c0,0-306,1264.6-838.7,461.9C2191-448.4,1762.7-89,1636.6,497.1
					c-198.2,920.7-1312.7,582.3-1395.4,82.2"/>
				<path class="st16" d="M3674.3,64.7c0,0-304.6,1264.4-838,463.9c-647.4-971.5-1076.3-622-1204.7-33.7
					C1430.6,1415.5,321.2,1072.6,239,575.4"/>
				<path class="st16" d="M3671.9,64.8c0,0-303.2,1264.2-837.4,465.8C2186.7-437.5,1757-97.9,1626.4,492.6
					c-203.6,920.5-1307.9,573.2-1389.5,78.9"/>
				<path class="st16" d="M3669.5,64.9c0,0-301.8,1264-836.8,467.7c-648.2-964.7-1078.6-635-1211.4-42.2
					c-206.3,920.4-1305.4,568.7-1386.6,77.3"/>
				<path class="st16" d="M3667.2,65.1c0,0-300.4,1263.8-836.2,469.6c-648.6-961.3-1079.7-641.5-1214.7-46.5
					c-208.9,920.3-1303,564.1-1383.7,75.7"/>
				<path class="st16" d="M3664.8,65.2c0,0-299,1263.6-835.6,471.6c-649-957.9-1080.8-648-1218.1-50.7
					c-211.6,920.2-1300.5,559.6-1380.8,74.1"/>
				<path class="st16" d="M3662.5,65.3c0,0-297.6,1263.4-835,473.5c-649.4-954.5-1081.9-654.5-1221.4-55
					C1391.9,1403.9,308,1038.9,228.3,556.3"/>
				<path class="st16" d="M3660.1,65.4c0,0-296.1,1263.1-834.4,475.4C2176-410.3,1742.8-120.2,1601,481.6
					c-216.8,920-1295.7,550.5-1374.9,70.9"/>
				<path class="st16" d="M3657.8,65.6c0,0-294.7,1262.9-833.7,477.3c-650.2-947.7-1084-667.5-1228.1-63.5
					c-219.4,919.9-1293.2,546-1372,69.3"/>
				<path class="st16" d="M3655.4,65.7c0,0-293.3,1262.7-833.1,479.3c-650.6-944.3-1085.1-674.1-1231.5-67.7
					c-222,919.8-1290.8,541.5-1369.1,67.7"/>
				<path class="st16" d="M3653.1,65.8c0,0-291.9,1262.5-832.5,481.2c-651-940.9-1086.2-680.6-1234.8-72
					c-224.6,919.7-1288.3,536.9-1366.1,66.1"/>
				<path class="st16" d="M3650.7,65.9c0,0-290.5,1262.3-831.9,483.1C2167.4-388.5,1731.6-138,1580.7,472.8
					c-227.2,919.6-1285.9,532.4-1363.2,64.5"/>
				<path class="st16" d="M3648.4,66.1c0,0-289.1,1262.1-831.3,485C2165.3-383,1728.8-142.4,1575.6,470.6
					c-229.8,919.5-1283.4,527.9-1360.3,62.8"/>
				<path class="st16" d="M3646,66.2c0,0-287.7,1261.9-830.7,487C2163.2-377.6,1726-146.9,1570.5,468.4
					c-232.4,919.4-1281,523.3-1357.4,61.2"/>
				<path class="st16" d="M3643.7,66.3c0,0-286.2,1261.6-830,488.9c-652.6-927.4-1090.4-706.6-1248.2-89
					C1330.5,1385.5,286.9,985,211,525.8"/>
				<path class="st16" d="M3641.3,66.4c0,0-284.8,1261.4-829.4,490.8c-653-924-1091.4-713.1-1251.6-93.3
					c-237.5,919.2-1276.1,514.3-1351.5,58"/>
				<path class="st16" d="M3639,66.6c0,0-283.4,1261.2-828.8,492.8c-653.4-920.6-1092.5-719.6-1254.9-97.5
					c-240,919.1-1273.7,509.7-1348.6,56.4"/>
				<path class="st16" d="M3636.6,66.7c0,0-282,1261-828.2,494.7c-653.8-917.2-1093.5-726.1-1258.2-101.8
					c-242.5,919-1271.2,505.2-1345.7,54.8"/>
				<path class="st16" d="M3634.3,66.8c0,0-280.6,1260.8-827.6,496.6c-654.2-913.8-1094.5-732.5-1261.6-106
					c-245,918.9-1268.8,500.7-1342.7,53.2"/>
				<path class="st16" d="M3631.9,66.9c0,0-279.1,1260.6-827,498.5C2150.4-345,1709.4-173.6,1540,455.2
					C1292.5,1374,273.7,951.3,200.2,506.8"/>
				<path class="st16" d="M3629.6,67.1c0,0-277.7,1260.3-826.3,500.5C2148.3-339.5,1706.7-178,1535,453
					c-250,918.8-1263.9,491.6-1336.9,50"/>
				<path class="st16" d="M3627.2,67.2c0,0-276.3,1260.1-825.7,502.4c-655.3-903.7-1097.6-752-1271.6-118.8
					c-252.5,918.7-1261.5,487-1333.9,48.4"/>
				<path class="st16" d="M3624.9,67.3c0,0-274.8,1259.9-825.1,504.3c-655.7-900.3-1098.6-758.5-1275-123.1
					c-255,918.6-1259,482.5-1331,46.7"/>
				<path class="st16" d="M3622.5,67.5c0,0-273.4,1259.7-824.5,506.2c-656-896.9-1099.6-765-1278.3-127.3
					c-257.5,918.5-1256.6,478-1328.1,45.1"/>
				<path class="st16" d="M3620.2,67.6c0,0-272,1259.5-823.9,508.2c-656.4-893.5-1100.6-771.5-1281.7-131.6
					c-260,918.5-1254.1,473.4-1325.2,43.5"/>
				<path class="st16" d="M3617.8,67.7c0,0-270.5,1259.2-823.3,510.1c-656.8-890.2-1101.5-778-1285-135.8
					c-262.4,918.4-1251.7,468.9-1322.2,41.9"/>
				<path class="st16" d="M3615.5,67.8c0,0-269.1,1259-822.6,512c-657.1-886.8-1102.5-784.4-1288.4-140.1
					c-264.9,918.3-1249.3,464.4-1319.3,40.3"/>
				<path class="st16" d="M3613.1,68c0,0-267.7,1258.8-822,513.9C2133.6-301.5,1687.6-209,1499.4,437.5
					C1232.1,1355.8,252.6,897.4,183,476.2"/>
				<path class="st16" d="M3610.8,68.1c0,0-266.2,1258.6-821.4,515.9c-657.9-880-1104.4-797.4-1295.1-148.6
					c-269.7,918.2-1244.4,455.3-1313.5,37.1"/>
				<path class="st16" d="M3608.4,68.2c0,0-264.8,1258.3-820.8,517.8c-658.2-876.7-1105.4-803.9-1298.4-152.9
					C1217,1351.3,247.3,883.9,178.7,468.6"/>
				<path class="st16" d="M3606.1,68.3c0,0-263.3,1258.1-820.2,519.7c-658.6-873.3-1106.4-810.4-1301.7-157.1
					C1209.5,1349,244.7,877.2,176.5,464.8"/>
				<path class="st16" d="M3603.7,68.5c0,0-261.9,1257.9-819.6,521.7c-658.9-869.9-1107.3-816.8-1305.1-161.4
					c-277,918-1237,441.7-1304.7,32.3"/>
				<path class="st16" d="M3601.4,68.6c0,0-260.4,1257.7-818.9,523.6C2123.1-274.4,1674.2-231.1,1474,426.5
					c-279.4,918-1234.6,437.2-1301.8,30.6"/>
				<path class="st16" d="M3599,68.7c0,0-259,1257.4-818.3,525.5C2121-269,1671.5-235.6,1468.9,424.3
					c-281.8,917.9-1232.2,432.6-1298.8,29"/>
				<path class="st16" d="M3596.7,68.8c0,0-257.5,1257.2-817.7,527.4C2119-263.5,1668.8-240,1463.8,422.1
					C1179.6,1340,234.1,850.2,167.9,449.5"/>
				<path class="st16" d="M3594.3,69c0,0-256.1,1257-817.1,529.4c-660.3-856.4-1111.1-842.7-1318.5-178.4
					c-286.6,917.8-1227.3,423.6-1293,25.8"/>
				<path class="st16" d="M3592,69.1c0,0-254.6,1256.8-816.5,531.3c-660.7-853.1-1112-849.2-1321.8-182.7
					c-289,917.8-1224.8,419-1290.1,24.2"/>
				<path class="st16" d="M3589.6,69.2c0,0-253.2,1256.5-815.9,533.2c-661-849.7-1112.9-855.6-1325.2-186.9
					C1157.2,1333.3,226.2,830,161.4,438.1"/>
				<path class="st16" d="M3587.3,69.3c0,0-251.7,1256.3-815.2,535.1c-661.4-846.3-1113.8-862.1-1328.5-191.2
					c-293.7,917.7-1219.9,410-1284.2,21"/>
				<path class="st16" d="M3584.9,69.5c0,0-250.3,1256.1-814.6,537.1c-661.7-843-1114.7-868.5-1331.9-195.4
					c-296.1,917.7-1217.5,405.4-1281.3,19.4"/>
				<path class="st16" d="M3582.5,69.6c0,0-248.8,1255.8-814,539c-662-839.6-1115.6-875-1335.2-199.7
					C1134.9,1326.5,218.3,809.8,155,426.7"/>
				<path class="st16" d="M3580.2,69.7c0,0-247.3,1255.6-813.4,540.9c-662.4-836.3-1116.5-881.4-1338.5-203.9
					C1127.5,1324.3,215.6,803,152.8,422.8"/>
				<path class="st16" d="M3577.8,69.8c0,0-245.9,1255.4-812.8,542.8c-662.7-832.9-1117.4-887.9-1341.9-208.2
					C1120.1,1322.1,213,796.3,150.6,419"/>
				<path class="st16" d="M3575.5,70c0,0-244.4,1255.1-812.2,544.8c-663-829.5-1118.3-894.3-1345.2-212.5
					c-305.4,917.6-1207.7,387.3-1269.6,12.9"/>
				<path class="st16" d="M3573.1,70.1c0,0-242.9,1254.9-811.6,546.7C2098.2-209.4,1642.4-284,1413,400.1
					c-307.8,917.6-1205.3,382.8-1266.7,11.3"/>
				<path class="st16" d="M3570.8,70.2c0,0-241.5,1254.6-810.9,548.6c-663.7-822.8-1120-907.2-1351.9-221
					c-310.1,917.5-1202.9,378.2-1263.7,9.7"/>
				<path class="st16" d="M3568.4,70.4c0,0-240,1254.4-810.3,550.5c-664-819.5-1120.9-913.7-1355.3-225.2
					C1090.5,1313.2,202.4,769.3,142,403.8"/>
				<path class="st16" d="M3566.1,70.5c0,0-238.5,1254.2-809.7,552.5c-664.3-816.1-1121.8-920.1-1358.6-229.5
					C1083.1,1311,199.8,762.6,139.9,400"/>
				<path class="st16" d="M3563.7,70.6c0,0-237,1253.9-809.1,554.4C2090-187.8,1632-301.5,1392.7,391.3
					c-317,917.5-1195.5,364.6-1255,4.9"/>
				<path class="st16" d="M3561.4,70.7c0,0-235.6,1253.7-808.5,556.3c-665-809.4-1123.5-933-1365.3-238
					c-319.3,917.5-1193.1,360.1-1252,3.3"/>
				<path class="st16" d="M3559,70.9c0,0-234.1,1253.4-807.9,558.3C2085.9-177,1626.9-310.3,1382.5,386.8
					c-321.6,917.5-1190.6,355.5-1249.1,1.7"/>
				<path class="st16" d="M3556.7,71c0,0-232.6,1253.2-807.2,560.2c-665.6-802.7-1125.2-945.8-1372-246.5
					c-323.9,917.5-1188.2,351-1246.2,0.1"/>
				<path class="st16" d="M3554.3,71.1c0,0-231.1,1252.9-806.6,562.1c-665.9-799.4-1126-952.2-1375.4-250.8
					C1046.2,1300,186.6,728.9,129.1,380.9"/>
				<path class="st16" d="M3552,71.2c0,0-229.6,1252.7-806,564c-666.2-796-1126.8-958.7-1378.7-255
					C1038.8,1297.8,184,722.2,126.9,377.1"/>
				<path class="st16" d="M3549.6,71.4c0,0-228.2,1252.5-805.4,566c-666.5-792.7-1127.7-965.1-1382-259.3
					c-330.7,917.5-1180.9,337.4-1237.4-4.8"/>
				<path class="st16" d="M3547.3,71.5c0,0-226.7,1252.2-804.8,567.9C2075.7-150,1614-332.1,1357.1,375.8
					c-333,917.5-1178.4,332.9-1234.5-6.4"/>
				<path class="st16" d="M3544.9,71.6c0,0-225.2,1252-804.2,569.8c-667.1-786-1129.3-977.9-1388.7-267.8
					c-335.2,917.6-1176,328.3-1231.6-8"/>
				<path class="st16" d="M3542.6,71.7c0,0-223.7,1251.7-803.5,571.7c-667.4-782.6-1130.1-984.3-1392.1-272.1
					C1009.5,1289,173.4,695.2,118.3,361.8"/>
				<path class="st16" d="M3540.2,71.9c0,0-222.2,1251.4-802.9,573.7c-667.7-779.3-1130.9-990.7-1395.4-276.3
					C1002.1,1286.8,170.8,688.5,116.2,358"/>
				<path class="st16" d="M3537.9,72c0,0-220.7,1251.2-802.3,575.6c-668-776-1131.7-997.2-1398.8-280.6
					C994.8,1284.6,168.1,681.7,114,354.2"/>
				<path class="st16" d="M3535.5,72.1c0,0-219.2,1250.9-801.7,577.5C2065.5-123,1601.3-353.9,1331.7,364.8
					C987.5,1282.5,165.5,675,111.8,350.4"/>
				<path class="st16" d="M3533.2,72.2c0,0-217.7,1250.7-801.1,579.4c-668.6-769.3-1133.3-1010-1405.5-289.1
					c-346.5,917.7-1163.8,305.7-1216.9-16"/>
				<path class="st16" d="M3530.8,72.4c0,0-216.2,1250.4-800.5,581.4c-668.9-766-1134.1-1016.4-1408.8-293.3
					c-348.7,917.7-1161.3,301.1-1214-17.7"/>
				<path class="st16" d="M3528.5,72.5c0,0-214.7,1250.2-799.8,583.3C2059.4-106.9,1593.7-367,1316.5,358.2
					C965.5,1276,157.6,654.8,105.4,338.9"/>
				<path class="st16" d="M3526.1,72.6c0,0-213.2,1249.9-799.2,585.2C2057.4-101.5,1591.2-371.3,1311.4,356
					C958.2,1273.8,154.9,648,103.2,335.1"/>
				<path class="st16" d="M3523.8,72.7c0,0-211.7,1249.6-798.6,587.1c-669.7-756-1136.4-1035.5-1418.9-306.1
					c-355.4,917.8-1154,287.5-1205.2-22.5"/>
				<path class="st16" d="M3521.4,72.9c0,0-210.2,1249.4-798,589.1C2053.4-90.7,1586.2-380,1301.2,351.6
					c-357.6,917.9-1151.6,283-1202.3-24.1"/>
				<path class="st16" d="M3519.1,73c0,0-208.7,1249.1-797.4,591c-670.3-749.3-1138-1048.3-1425.5-314.6
					C936.4,1267.3,147,627.8,96.7,323.7"/>
				<path class="st16" d="M3516.7,73.1c0,0-207.2,1248.8-796.8,592.9C2049.4-80,1581.2-388.6,1291.1,347.2
					c-362,918-1146.7,273.9-1196.5-27.3"/>
				<path class="st16" d="M3514.4,73.2c0,0-205.7,1248.6-796.1,594.9C2047.4-74.6,1578.7-393,1286,345
					C921.8,1263,141.7,614.4,92.4,316"/>
				<path class="st16" d="M3512,73.4c0,0-204.1,1248.3-795.5,596.8C2045.3-69.2,1576.2-397.3,1280.9,342.8
					C914.5,1260.9,139.1,607.6,90.3,312.2"/>
				<path class="st16" d="M3509.7,73.5c0,0-202.6,1248-794.9,598.7c-671.4-736.1-1141-1073.8-1438.9-331.6
					C907.2,1258.7,136.5,600.9,88.1,308.4"/>
				<path class="st16" d="M3507.3,73.6c0,0-201.1,1247.8-794.3,600.6C2041.3-58.5,1571.3-405.9,1270.7,338.4
					C900,1256.6,133.8,594.1,86,304.6"/>
				<path class="st16" d="M3505,73.8c0,0-199.6,1247.5-793.7,602.6C2039.3-53.1,1568.8-410.3,1265.6,336.2
					c-373,918.3-1134.5,251.2-1181.8-35.4"/>
				<path class="st16" d="M3502.6,73.9c0,0-198.1,1247.2-793.1,604.5c-672.2-726.1-1143.2-1092.9-1449-344.4
					c-375.1,918.4-1132,246.7-1178.9-37"/>
				<path class="st16" d="M3500.2,74c0,0-196.5,1246.9-792.5,606.4C2035.3-42.4,1563.9-418.9,1255.5,331.7
					c-377.3,918.4-1129.6,242.2-1176-38.6"/>
				<path class="st16" d="M3497.9,74.1c0,0-195,1246.7-791.8,608.3C2033.3-37,1561.4-423.2,1250.4,329.5
					C870.9,1248.1,123.3,567.2,77.3,289.3"/>
				<path class="st16" d="M3495.5,74.3c0,0-193.5,1246.4-791.2,610.3c-673-716.2-1145.4-1112-1459-357.2
					C863.7,1245.9,120.6,560.4,75.2,285.5"/>
				<path class="st16" d="M3493.2,74.4c0,0-192,1246.1-790.6,612.2C2029.4-26.3,1556.5-431.8,1240.2,325.1
					C856.4,1243.8,118,553.7,73,281.7"/>
				<path class="st16" d="M3490.8,74.5c0,0-190.4,1245.8-790,614.1C2027.4-21,1554-436.1,1235.2,322.9
					c-386,918.8-1119.8,224-1164.3-45"/>
				<path class="st16" d="M3488.5,74.6c0,0-188.9,1245.5-789.4,616c-673.7-706.3-1147.5-1131.1-1469-370
					C841.9,1239.6,112.7,540.2,68.7,274.1"/>
				<path class="st16" d="M3486.1,74.8c0,0-187.4,1245.2-788.8,618c-674-703-1148.2-1137.4-1472.4-374.2
					c-390.3,918.9-1114.9,215-1158.4-48.2"/>
				<path class="st16" d="M3483.8,74.9c0,0-185.8,1244.9-788.1,619.9C2021.4-4.9,1546.7-449,1219.9,316.3
					c-392.5,919-1112.5,210.4-1155.5-49.9"/>
				<path class="st16" d="M3481.4,75c0,0-184.3,1244.7-787.5,621.8C2019.4,0.4,1544.3-453.3,1214.8,314.1
					C820.2,1233.2,104.8,520,62.3,262.6"/>
				<path class="st16" d="M3479.1,75.1c0,0-182.8,1244.4-786.9,623.7C2017.5,5.8,1541.9-457.5,1209.8,311.9
					C813,1231.1,102.1,513.3,60.1,258.8"/>
				<path class="st16" d="M3476.7,75.3c0,0-181.2,1244.1-786.3,625.7c-675-689.8-1151-1162.8-1485.8-391.2
					C805.8,1229,99.5,506.5,57.9,255"/>
				<path class="st16" d="M3474.4,75.4c0,0-179.7,1243.8-785.7,627.6C2013.5,16.5,1537-466.1,1199.6,307.5
					C798.5,1226.9,96.9,499.8,55.8,251.2"/>
				<path class="st16" d="M3472,75.5c0,0-178.1,1243.5-785.1,629.5C2011.5,21.8,1534.6-470.4,1194.5,305.3
					C791.3,1224.8,94.2,493.1,53.6,247.4"/>
				<path class="st16" d="M3469.7,75.6c0,0-176.6,1243.2-784.4,631.5c-675.7-680-1153-1181.8-1495.8-404
					C784.1,1222.8,91.6,486.3,51.5,243.6"/>
				<path class="st16" d="M3467.3,75.8c0,0-175,1242.9-783.8,633.4C2007.6,32.5,1529.8-478.9,1184.3,300.9
					C776.9,1220.7,88.9,479.6,49.3,239.8"/>
				<path class="st16" d="M3465,75.9c0,0-173.5,1242.6-783.2,635.3C2005.6,37.8,1527.4-483.2,1179.3,298.7
					C769.7,1218.6,86.3,472.8,47.2,235.9"/>
				<path class="st16" d="M3462.6,76c0,0-171.9,1242.3-782.6,637.2C2003.7,43.1,1525-487.5,1174.2,296.5
					C762.5,1216.5,83.7,466.1,45,232.1"/>
				<path class="st16" d="M3460.3,76.1c0,0-170.4,1241.9-782,639.2c-676.6-666.9-1155.7-1207-1509.2-421
					C755.3,1214.4,81,459.4,42.9,228.3"/>
				<path class="st16" d="M3457.9,76.3c0,0-168.8,1241.6-781.4,641.1C1999.7,53.8,1520.2-496,1164,292.1
					C748,1212.3,78.4,452.6,40.7,224.5"/>
				<path class="st16" d="M3455.6,76.4c0,0-167.3,1241.3-780.7,643c-677.1-660.3-1157-1219.6-1515.9-429.5
					C740.8,1210.3,75.7,445.9,38.5,220.7"/>
				<path class="st16" d="M3453.2,76.5c0,0-165.7,1241-780.1,644.9c-677.3-657-1157.6-1225.9-1519.2-433.8
					C733.6,1208.2,73.1,439.1,36.4,216.9"/>
				<path class="st16" d="M3450.9,76.7c0,0-164.1,1240.7-779.5,646.9C1993.9,69.7,1513.1-508.7,1148.8,285.5
					C726.5,1206.1,70.5,432.4,34.2,213.1"/>
				<path class="st16" d="M3448.5,76.8c0,0-162.6,1240.4-778.9,648.8C1991.9,75.1,1510.7-513,1143.7,283.3
					C719.3,1204.1,67.8,425.7,32.1,209.2"/>
				<path class="st16" d="M3446.2,76.9c0,0-161,1240-778.3,650.7C1989.9,80.4,1508.3-517.2,1138.6,281
					C712.1,1202,65.2,418.9,29.9,205.4"/>
				<path class="st16" d="M3443.8,77c0,0-159.4,1239.7-777.7,652.6C1988,85.7,1506-521.5,1133.5,278.8
					C704.9,1199.9,62.6,412.2,27.8,201.6"/>
				<path class="st16" d="M3441.5,77.2c0,0-157.9,1239.4-777,654.6C1986,91,1503.6-525.7,1128.5,276.6
					C697.7,1197.9,59.9,405.4,25.6,197.8"/>
				<path class="st16" d="M3439.1,77.3c0,0-156.3,1239.1-776.4,656.5C1984.1,96.3,1501.2-529.9,1123.4,274.4
					C690.5,1195.8,57.3,398.7,23.4,194"/>
				<path class="st16" d="M3436.8,77.4c0,0-154.7,1238.7-775.8,658.4c-678.8-634.2-1162.1-1270-1542.7-463.6
					C683.3,1193.8,54.6,392,21.3,190.2"/>
				<path class="st16" d="M3434.4,77.5c0,0-153.2,1238.4-775.2,660.4c-679-631-1162.7-1276.3-1546-467.9
					C676.2,1191.7,52,385.2,19.1,186.4"/>
				<path class="st16" d="M3432.1,77.7c0,0-151.6,1238.1-774.6,662.3C1978.3,112.2,1494.2-542.6,1108.1,267.8
					C669,1189.7,49.4,378.5,17,182.5"/>
				<path class="st16" d="M3429.7,77.8c0,0-150,1237.7-774,664.2C1976.3,117.5,1491.8-546.8,1103,265.6
					C661.8,1187.7,46.7,371.8,14.8,178.7"/>
				<path class="st16" d="M3427.4,77.9c0,0-148.4,1237.4-773.3,666.1C1974.4,122.8,1489.5-551,1098,263.4
					C654.6,1185.6,44.1,365,12.7,174.9"/>
				<path class="st16" d="M3425,78c0,0-146.9,1237-772.7,668.1c-679.8-618-1165.1-1301.4-1559.4-484.9
					C647.5,1183.6,41.4,358.3,10.5,171.1"/>
				<path class="st16" d="M3422.7,78.2c0,0-145.3,1236.7-772.1,670C1970.5,133.4,1484.8-559.5,1087.8,259
					C640.3,1181.6,38.8,351.5,8.4,167.3"/>
				<path class="st16" d="M3420.3,78.3c0,0-143.7,1236.3-771.5,671.9C1968.6,138.7,1482.5-563.7,1082.7,256.8
					C633.1,1179.5,36.2,344.8,6.2,163.5"/>
				<path class="st16" d="M3418,78.4c0,0-142.1,1236-770.9,673.8C1966.7,143.9,1480.2-567.9,1077.6,254.6
					C626,1177.5,33.5,338.1,4,159.7"/>
				<path class="st16" d="M3415.6,78.5c0,0-140.5,1235.6-770.3,675.8C1964.7,149.2,1477.8-572.1,1072.6,252.4
					C618.8,1175.5,30.9,331.3,1.9,155.8"/>
				<path class="st16" d="M3413.2,78.7c0,0-138.9,1235.3-769.7,677.7C1962.8,154.5,1475.5-576.3,1067.5,250.2
					C611.6,1173.5,28.2,324.6-0.3,152"/>
				<path class="st16" d="M3410.9,78.8c0,0-137.3,1234.9-769,679.6C1960.9,159.8,1473.2-580.5,1062.4,248
					C604.5,1171.4,25.6,317.8-2.4,148.2"/>
				<path class="st16" d="M3408.5,78.9c0,0-135.7,1234.6-768.4,681.5C1958.9,165,1470.9-584.7,1057.3,245.8
					C597.3,1169.4,23,311.1-4.6,144.4"/>
				<path class="st16" d="M3406.2,79c0,0-134.2,1234.2-767.8,683.5C1957,170.3,1468.6-588.9,1052.2,243.6
					c-462.1,923.8-1031.9,60.8-1059-103"/>
				<path class="st16" d="M3403.8,79.2c0,0-132.6,1233.8-767.2,685.4c-681.6-589-1170.4-1357.6-1589.5-523.2
					C583,1165.4,17.7,297.6-8.9,136.8"/>
				<path class="st16" d="M3401.5,79.3c0,0-131,1233.5-766.6,687.3C1953.2,180.8,1464-597.2,1042.1,239.2
					C575.9,1163.4,15,290.9-11,133"/>
				<path class="st16" d="M3399.1,79.4c0,0-129.4,1233.1-766,689.2C1951.2,186.1,1461.7-601.4,1037,237
					C568.7,1161.4,12.4,284.1-13.2,129.1"/>
				<path class="st16" d="M3396.8,79.6c0,0-127.8,1232.7-765.3,691.2c-682.1-579.4-1172.1-1376.3-1599.5-536
					C561.6,1159.4,9.8,277.4-15.4,125.3"/>
				<path class="st16" d="M3394.4,79.7c0,0-126.2,1232.3-764.7,693.1C1947.4,196.6,1457.1-609.8,1026.8,232.6
					C554.4,1157.4,7.1,270.7-17.5,121.5"/>
				<path class="st16" d="M3392.1,79.8c0,0-124.6,1231.9-764.1,695C1945.5,201.9,1454.8-614,1021.7,230.4
					C547.3,1155.4,4.5,263.9-19.7,117.7"/>
				<path class="st16" d="M3389.7,79.9c0,0-123,1231.6-763.5,697c-682.7-569.8-1173.7-1395-1609.6-548.7
					C540.1,1153.4,1.9,257.2-21.8,113.9"/>
				<path class="st16" d="M3387.4,80.1c0,0-121.4,1231.2-762.9,698.9c-682.8-566.6-1174.3-1401.2-1612.9-553
					C533,1151.4-0.8,250.5-24,110.1"/>
				<path class="st16" d="M3385,80.2c0,0-119.7,1230.8-762.3,700.8C1939.8,217.6,1448-626.4,1006.5,223.7
					C525.8,1149.4-3.4,243.7-26.1,106.3"/>
				<path class="st16" d="M3382.7,80.3c0,0-118.1,1230.4-761.6,702.7C1937.8,222.8,1445.7-630.6,1001.4,221.5
					C518.7,1147.4-6.1,237-28.3,102.4"/>
				<path class="st16" d="M3380.3,80.4c0,0-116.5,1230-761,704.7c-683.4-557-1175.9-1419.9-1623-565.8
					C511.6,1145.5-8.7,230.2-30.5,98.6"/>
				<path class="st16" d="M3378,80.6c0,0-114.9,1229.6-760.4,706.6C1934,233.3,1441.1-638.9,991.3,217.1
					C504.4,1143.5-11.3,223.5-32.6,94.8"/>
				<path class="st16" d="M3375.6,80.7c0,0-113.3,1229.2-759.8,708.5c-683.7-550.6-1177-1432.3-1629.7-574.3
					C497.3,1141.5-14,216.8-34.8,91"/>
				<path class="st16" d="M3373.3,80.8c0,0-111.7,1228.8-759.2,710.4c-683.9-547.5-1177.5-1438.5-1633-578.5
					C490.2,1139.5-16.6,210-36.9,87.2"/>
				<path class="st16" d="M3370.9,80.9c0,0-110.1,1228.4-758.6,712.4C1928.3,249,1434.3-651.4,976,210.5
					C483,1137.6-19.3,203.3-39.1,83.4"/>
				<path class="st16" d="M3368.6,81.1c0,0-108.5,1227.9-757.9,714.3c-684.2-541.1-1178.6-1450.9-1639.7-587
					C475.9,1135.6-21.9,196.5-41.2,79.6"/>
				<path class="st16" d="M3366.2,81.2c0,0-106.8,1227.5-757.3,716.2c-684.4-538-1179.1-1457.1-1643-591.3
					C468.8,1133.6-24.5,189.8-43.4,75.7"/>
				<path class="st16" d="M3363.9,81.3c0,0-105.2,1227.1-756.7,718.1C1922.6,264.7,1427.6-663.8,960.8,203.9
					C461.6,1131.7-27.2,183.1-45.5,71.9"/>
				<path class="st16" d="M3361.5,81.4c0,0-103.6,1226.7-756.1,720.1C1920.7,269.9,1425.3-667.9,955.7,201.7
					C454.5,1129.7-29.8,176.3-47.7,68.1"/>
				<path class="st16" d="M3359.2,81.6c0,0-102,1226.3-755.5,722C1918.8,275.1,1423.1-672,950.6,199.5
					C447.4,1127.8-32.5,169.6-49.9,64.3"/>
				<path class="st16" d="M3356.8,81.7c0,0-100.4,1225.8-754.9,723.9c-685-525.3-1181.1-1481.8-1656.4-608.3
					C440.3,1125.8-35.1,162.8-52,60.5"/>
				<path class="st16" d="M3354.5,81.8c0,0-98.7,1225.4-754.2,725.8C1915,285.5,1418.6-680.3,940.4,195.1
					c-507.3,928.8-978.2-39-994.6-138.4"/>
				<path class="st16" d="M3352.1,81.9c0,0-97.1,1225-753.6,727.8c-685.4-519-1182.1-1494.1-1663.1-616.8
					c-509.3,929-975.7-43.5-991.7-140"/>
				<path class="st16" d="M3349.8,82.1c0,0-95.5,1224.5-753,729.7C1911.2,295.9,1414.1-688.5,930.3,190.7
					C418.9,1120-43,142.6-58.5,49"/>
				<path class="st16" d="M3347.4,82.2c0,0-93.8,1224.1-752.4,731.6C1909.3,301.1,1411.9-692.7,925.2,188.5
					C411.8,1118-45.7,135.9-60.6,45.2"/>
				<path class="st16" d="M3345.1,82.3c0,0-92.2,1223.6-751.8,733.6C1907.4,306.3,1409.6-696.8,920.1,186.3
					C404.7,1116.1-48.3,129.2-62.8,41.4"/>
				<path class="st16" d="M3342.7,82.5c0,0-90.6,1223.2-751.2,735.5C1905.5,311.5,1407.4-700.9,915,184.1
					c-517.5,930.1-966-61.6-980-146.5"/>
				<path class="st16" d="M3340.4,82.6c0,0-89,1222.7-750.6,737.4C1903.6,316.6,1405.2-705,910,181.9
					C390.4,1112.2-53.6,115.7-67.1,33.8"/>
				<path class="st16" d="M3338,82.7c0,0-87.3,1222.3-749.9,739.3C1901.8,321.8,1403-709.1,904.9,179.7
					C383.3,1110.3-56.2,108.9-69.3,30"/>
				<path class="st16" d="M3335.7,82.8c0,0-85.7,1221.8-749.3,741.3C1899.9,327,1400.8-713.2,899.8,177.5
					C376.2,1108.3-58.8,102.2-71.4,26.2"/>
				<path class="st16" d="M3333.3,83c0,0-84.1,1221.3-748.7,743.2C1898,332.2,1398.5-717.3,894.7,175.2
					C369.1,1106.4-61.5,95.5-73.6,22.3"/>
				<path class="st16" d="M3331,83.1c0,0-82.4,1220.9-748.1,745.1C1896.1,337.3,1396.3-721.4,889.6,173
					C362,1104.5-64.1,88.7-75.7,18.5"/>
				<path class="st16" d="M3328.6,83.2c0,0-80.8,1220.4-747.5,747c-686.9-487.7-1187-1555.7-1696.6-659.4
					C354.8,1102.6-66.8,82-77.9,14.7"/>
				<path class="st16" d="M3326.2,83.3c0,0-79.1,1219.9-746.9,749C1892.3,347.7,1391.9-729.6,879.5,168.6
					C347.7,1100.6-69.4,75.2-80,10.9"/>
				<path class="st16" d="M3323.9,83.5c0,0-77.5,1219.4-746.2,750.9c-687.2-481.5-1188-1568-1703.3-667.9
					C340.6,1098.7-72,68.5-82.2,7.1"/>
				<path class="st16" d="M3321.5,83.6c0,0-75.9,1219-745.6,752.8C1888.5,358,1387.5-737.7,869.3,164.2
					C333.5,1096.8-74.7,61.8-84.3,3.3"/>
				<path class="st16" d="M3319.2,83.7c0,0-74.2,1218.5-745,754.7C1886.6,363.1,1385.3-741.8,864.2,162
					C326.4,1094.9-77.3,55-86.5-0.5"/>
				<path class="st16" d="M3316.8,83.8c0,0-72.6,1218-744.4,756.7C1884.8,368.3,1383.1-745.9,859.1,159.8
					C319.3,1093-80,48.3-88.7-4.4"/>
				<path class="st16" d="M3314.5,84c0,0-70.9,1217.5-743.8,758.6C1882.9,373.4,1380.9-750,854.1,157.6
					C312.2,1091.1-82.6,41.5-90.8-8.2"/>
				<path class="st16" d="M3312.1,84.1c0,0-69.3,1217-743.2,760.5C1881,378.6,1378.7-754,849,155.4C305.1,1089.2-85.2,34.8-93-12"/>
				<path class="st16" d="M3309.8,84.2c0,0-67.6,1216.5-742.5,762.4C1879.1,383.7,1376.5-758.1,843.9,153.2
					C298,1087.3-87.9,28.1-95.1-15.8"/>
				<path class="st16" d="M3307.4,84.3c0,0-66,1216-741.9,764.4C1877.2,388.8,1374.3-762.2,838.8,151
					C290.9,1085.4-90.5,21.3-97.3-19.6"/>
				<path class="st16" d="M3305.1,84.5c0,0-64.4,1215.5-741.3,766.3c-688.4-456.8-1191.6-1617-1730-702
					C283.8,1083.5-93.2,14.6-99.4-23.4"/>
				<path class="st16" d="M3302.7,84.6c0,0-62.7,1214.9-740.7,768.2C1873.4,399.1,1370-770.3,828.7,146.6
					c-552,935-924.5-138.7-930.3-173.8"/>
				<path class="st16" d="M3300.4,84.7c0,0-61.1,1214.4-740.1,770.2C1871.6,404.2,1367.8-774.3,823.6,144.4
					c-554,935.3-922-143.3-927.3-175.4"/>
				<path class="st16" d="M3298,84.8c0,0-59.4,1213.9-739.5,772.1c-688.9-447.6-1193-1635.3-1740.1-714.7
					C262.4,1077.8-101.1-5.6-105.9-34.9"/>
				<path class="st16" d="M3295.7,85c0,0-57.8,1213.4-738.8,774c-689-444.5-1193.4-1641.4-1743.4-719
					C255.3,1075.9-103.7-12.4-108.1-38.7"/>
				<path class="st16" d="M3293.3,85.1c0,0-56.1,1212.8-738.2,775.9C1865.9,419.6,1361.2-786.5,808.3,137.8
					C248.2,1074-106.4-19.1-110.2-42.5"/>
				<path class="st16" d="M3291,85.2c0,0-54.5,1212.3-737.6,777.9C1864,424.7,1359.1-790.5,803.3,135.6
					C241.1,1072.2-109-25.8-112.4-46.3"/>
				<path class="st16" d="M3288.6,85.3c0,0-52.8,1211.8-737,779.8C1862.1,429.8,1356.9-794.6,798.2,133.4
					C234,1070.3-111.6-32.6-114.5-50.1"/>
				<path class="st16" d="M3286.3,85.5c0,0-50.3,1209.9-736.4,781.7c-688.8-433.6-1195.2-1665.8-1756.8-736
					C226.9,1068.4-114.3-39.3-116.7-53.9"/>
				<path class="st16" d="M3283.9,85.6c0,0-48.9,1209.6-735.8,783.6C1859,438.9,1354.4-801.5,788,129
					c-566.3,938.7-904.9-175-906.9-186.7"/>
				<path class="st16" d="M3281.6,85.7c0,0-47.4,1209.3-735.1,785.6C1857,444.3,1351.8-805.8,782.9,126.8
					C214.1,1065.5-119.5-52.8-121-61.6"/>
				<path class="st16" d="M3279.2,85.9c0,0-45.9,1209-734.5,787.5C1854.9,449.6,1349.2-810.1,777.8,124.5
					c-571.3,938.8-900-184.1-901-189.9"/>
				<path class="st16" d="M3276.9,86c0,0-44.4,1208.7-733.9,789.4C1852.9,455,1346.5-814.5,772.8,122.3
					C199,1061.2-124.8-66.3-125.3-69.2"/>
				<path class="st16" d="M3274.5,86.1c0,0-42.9,1208.4-733.3,791.3S1343.9-818.8,767.7,120.1S-127.5-73-127.5-73"/>
			</g>
		</g>
	</g>
	<g class="st0">
		<text transform="matrix(1 0 0 1 495.6123 557.2783)" class="st1 st2 st3">كصقان</text>
	</g>
	<g class="st0">
		<text transform="matrix(1 0 0 1 760.166 563.2783)" class="st4 st5 st3">#</text>
	</g>
	<g class="st0">
		<g>
			<g>
				<g>
					<path class="st4" d="M173.8,972.2c-1.3,0.6-2.8,1-4.3,1.2c0.7-0.1,1.7-1.4,2.1-1.9c0.6-0.8,1.1-1.7,1.4-2.6
						c0-0.1,0.1-0.2,0-0.2c-0.1,0-0.2,0-0.2,0c-1.6,0.9-3.3,1.5-5.1,1.9c-0.1,0-0.3,0-0.4-0.1c-0.1-0.2-0.3-0.3-0.4-0.5
						c-0.8-0.6-1.6-1.1-2.5-1.5c-1.2-0.5-2.5-0.7-3.8-0.6c-1.3,0.1-2.5,0.4-3.6,1c-1.1,0.6-2.1,1.4-2.9,2.4c-0.8,1-1.4,2.2-1.7,3.5
						c-0.3,1.2-0.3,2.4-0.1,3.7c0,0.2,0,0.2-0.2,0.2c-7-1-12.8-3.5-17.5-8.9c-0.2-0.2-0.3-0.2-0.5,0c-2.1,3.1-1.1,8,1.5,10.5
						c0.3,0.3,0.7,0.6,1.1,0.9c-0.1,0-1.9-0.2-3.4-0.9c-0.2-0.1-0.3-0.1-0.3,0.2c0,0.3,0,0.6,0.1,1c0.4,3.1,2.6,6,5.5,7.2
						c0.4,0.1,0.7,0.3,1.1,0.3c-0.7,0.1-1.4,0.3-3.3,0.1c-0.2,0-0.3,0.1-0.2,0.3c1.5,4,4.6,5.2,7,5.8c0.3,0.1,0.6,0.1,0.9,0.1
						c0,0,0,0-0.1,0.1c-0.8,1.2-3.5,2.1-4.8,2.5c-2.3,0.8-4.8,1.2-7.2,0.9c-0.4-0.1-0.5-0.1-0.6,0c-0.1,0.1,0,0.2,0.1,0.3
						c0.5,0.3,1,0.6,1.5,0.9c1.5,0.8,3.1,1.5,4.8,1.9c8.7,2.4,18.4,0.6,24.9-5.8c5.1-5.1,6.9-12.1,6.9-19.1c0-0.3,0.3-0.4,0.5-0.6
						c1.3-1,2.4-2.2,3.4-3.5c0.2-0.3,0.2-0.6,0.2-0.7c0,0,0,0,0,0C174,972,174,972.1,173.8,972.2z"/>
				</g>
				<g>
					<path class="st7" d="M144.2,1002.8C147.8,1002.8,144.3,1002.8,144.2,1002.8C144.6,1002.8,144.1,1002.8,144.2,1002.8z"/>
				</g>
				<g>
					<path class="st7" d="M144.2,1002.8C144.1,1002.8,143.5,1002.8,144.2,1002.8C144.2,1002.8,144.1,1002.8,144.2,1002.8z"/>
				</g>
				<g>
					<path class="st7" d="M145.6,1002.8C145.6,1002.7,146.3,1002.8,145.6,1002.8C145.6,1002.8,145.7,1002.8,145.6,1002.8z"/>
				</g>
				<g>
					<path class="st7" d="M160.6,968c0,0-0.1,0-0.2,0C160.5,968,160.6,968,160.6,968z"/>
				</g>
			</g>
		</g>
	</g>
	<g class="st0">
		<g>
			<g>
				<g>
					<path class="st4" d="M193.3,994.8c0-0.2,0-0.4,0-0.7c0.3-0.3,0.5-0.6,1-0.7c3.4-0.7,5.7-2.9,7.4-5.7c1.5-2.4,1.2-3-1.5-3.9
						c-0.2-0.1-0.3-0.1-0.5-0.2c-0.6-0.2-1.1-0.5-1.6-0.9c-1.2-1-0.5-2.5,0.9-2.9c1-0.2,1.9,0.4,2.9,0.5c0.7,0.1,0.9-0.1,0.9-0.9
						c-0.2-1.8-0.2-3.7-0.1-5.5c0.2-3.5,1.9-6.2,4.8-7.9c4.3-2.5,8.8-2.6,13.1,0c2.7,1.6,4.4,4,4.8,7.2c0.2,2.1,0.1,4.2,0,6.3
						c-0.1,0.9,0.1,1.1,1,0.9c1.1-0.3,2-0.8,3.2-0.3c0.6,0.3,1.2,0.9,1.1,1.5c0,0.5-0.3,0.9-0.6,1.2c-0.5,0.5-1.2,0.7-1.9,1
						c-0.5,0.2-1,0.4-1.5,0.6c-1,0.5-1.3,1.1-0.8,2.1c1.6,3.5,4,6.1,7.9,7c0.5,0.1,0.9,0.3,1.1,0.7c0,0.2,0,0.4,0,0.7
						c-0.4,0.8-1,1.2-1.8,1.5c-0.8,0.3-1.5,0.6-2.3,0.7c-1.1,0.1-1.7,0.6-1.9,1.7c-0.2,1.1-0.5,1.3-1.6,1.2c-0.3,0-0.5-0.1-0.8-0.1
						c-2.2-0.4-4.3-0.2-6.2,1.3c-0.4,0.3-0.8,0.5-1.1,0.8c-3.1,2-6.3,2.3-9.6,0.4c-0.9-0.5-1.7-1.1-2.6-1.7
						c-0.7-0.5-1.5-0.7-2.3-0.9c-1.4-0.2-2.6,0.1-4,0.2c-0.7,0.1-1.3-0.1-1.4-0.8c-0.1-1.7-1.1-2.1-2.5-2.3
						c-0.7-0.1-1.3-0.3-1.9-0.6C194.3,995.9,193.6,995.5,193.3,994.8z"/>
				</g>
			</g>
		</g>
	</g>
	<g class="st0">
		<g>
			<path class="st4" d="M291.6,972.2c-1.3,0-2.3,1-2.3,2.3c0,1.3,1,2.3,2.3,2.3c1.3,0,2.3-1,2.3-2.3
				C293.9,973.2,292.9,972.2,291.6,972.2z M281.2,975.2c-5.4,0-9.8,4.4-9.8,9.8c0,5.4,4.4,9.8,9.8,9.8s9.8-4.4,9.8-9.8
				C291,979.6,286.6,975.2,281.2,975.2z M281.2,991.3c-3.5,0-6.3-2.8-6.3-6.3s2.8-6.3,6.3-6.3s6.3,2.8,6.3,6.3
				S284.7,991.3,281.2,991.3z M301,976.8c0-6.6-5.4-12-12-12h-15.8c-6.6,0-12,5.4-12,12v15.8c0,6.6,5.4,12,12,12H289
				c6.6,0,12-5.4,12-12V976.8z M297.3,992.6c0,4.5-3.7,8.2-8.2,8.2h-15.8c-4.5,0-8.2-3.7-8.2-8.2v-15.8c0-4.5,3.7-8.2,8.2-8.2H289
				c4.5,0,8.2,3.7,8.2,8.2V992.6z"/>
		</g>
	</g>
	<g class="st0">
		<text transform="matrix(1 0 0 1 344.3838 999.3789)" class="st4 st8 st9">@ ULINK0</text>
	</g>
	<rect x="93" y="968" class="st17" width="14" height="35"/>
</g>
</svg>
