<?xml version="1.0" encoding="utf-8"?>
<!-- Generator: Adobe Illustrator 22.0.1, SVG Export Plug-In . SVG Version: 6.00 Build 0)  -->
<svg version="1.1" id="Layer_1" xmlns="http://www.w3.org/2000/svg" xmlns:xlink="http://www.w3.org/1999/xlink" x="0px" y="0px"
	 viewBox="0 0 1366 768" style="enable-background:new 0 0 1366 768;" xml:space="preserve">
<style type="text/css">
	.st0{opacity:0.3;}
	.st1{clip-path:url(#SVGID_2_);}
	.st2{fill:none;stroke:#FF914C;stroke-width:0.25;stroke-miterlimit:10;}
</style>
<g class="st0">
	<defs>
		<rect id="SVGID_1_" y="0" class="st0" width="1366" height="768"/>
	</defs>
	<clipPath id="SVGID_2_">
		<use xlink:href="#SVGID_1_"  style="overflow:visible;"/>
	</clipPath>
	<g class="st1">
		<path class="st2" d="M660.6,897c0,0-129-390,159.8-240.6c367.1,189.8,281.9-127.1,202.1-236.9
			C855.2,189.4,1234.4-61.9,1385.8,90.6"/>
		<path class="st2" d="M661.8,896c0,0-129.7-389.2,158.8-241.4c366,187.9,285.2-124.2,205.6-235.9
			C860.9,187.1,1238.4-59.2,1388.5,91.8"/>
		<path class="st2" d="M663,895c0,0-130.4-388.5,157.7-242.2c364.8,186,288.6-121.3,209-234.9C866.6,184.8,1242.5-56.6,1391.1,93.1"
			/>
		<path class="st2" d="M664.3,894c0,0-131-387.8,156.6-243.1c363.7,184.1,291.9-118.4,212.5-233.9
			c-161.1-234.5,213.2-471,360.4-322.8"/>
		<path class="st2" d="M665.5,893c0,0-131.7-387,155.5-243.9c362.6,182.1,295.2-115.5,216-232.8
			C877.9,180.4,1250.6-51.3,1396.4,95.6"/>
		<path class="st2" d="M666.7,892.1c0,0-132.4-386.3,154.4-244.7c361.5,180.2,298.5-112.5,219.5-231.8
			C883.5,178.2,1254.7-48.6,1399.1,96.8"/>
		<path class="st2" d="M668,891.1c0,0-132.8-386.2,153.3-245.5c360.8,177.4,301.8-109.6,223-230.8
			C889.1,176.1,1258.8-45.9,1401.8,98.1"/>
		<path class="st2" d="M669.2,890.1c0,0-133.5-385.6,152.2-246.3c359.8,175.4,305.1-106.6,226.5-229.7
			C894.7,174,1262.8-43.3,1404.4,99.3"/>
		<path class="st2" d="M670.4,889.1c0,0-134.1-385,151.2-247.1c358.7,173.3,308.3-103.7,230-228.7
			c-151.3-241.4,215.4-453.9,355.5-312.7"/>
		<path class="st2" d="M671.7,888.1c0,0-134.8-384.3,150.1-247.9c357.7,171.2,311.6-100.7,233.4-227.7
			C905.7,169.8,1271-38,1409.8,101.8"/>
		<path class="st2" d="M672.9,887.1c0,0-135.4-383.7,149-248.8c356.6,169.2,314.9-97.7,236.9-226.7
			C911.3,167.8,1275-35.3,1412.4,103"/>
		<path class="st2" d="M674.2,886.2c0,0-136.1-383.1,147.9-249.6c355.5,167.1,318.2-94.7,240.4-225.6
			c-145.7-245.2,216.6-443.6,352.6-306.7"/>
		<path class="st2" d="M675.4,885.2c0,0-136.7-382.4,146.8-250.4c354.5,165.1,321.5-91.7,243.9-224.6
			C922.2,163.8,1283.2-30,1417.7,105.5"/>
		<path class="st2" d="M676.6,884.2c0,0-137.4-381.8,145.7-251.2c353.4,163,324.7-88.7,247.4-223.6
			c-142.1-247.6,217.5-436.7,350.7-302.6"/>
		<path class="st2" d="M677.9,883.2c0,0-138-381.1,144.6-252c352.4,161,328-85.7,250.9-222.6C933.1,159.8,1291.3-24.7,1423.1,108"/>
		<path class="st2" d="M679.1,882.2c0,0-138.7-380.5,143.6-252.8c351.3,158.9,331.3-82.7,254.3-221.5
			c-138.5-250,218.4-429.9,348.7-298.6"/>
		<path class="st2" d="M680.3,881.2c0,0-139.4-379.9,142.5-253.6c350.2,156.9,334.5-79.6,257.8-220.5
			c-136.7-251.2,218.8-426.4,347.8-296.6"/>
		<path class="st2" d="M681.6,880.3c0,0-140-379.2,141.4-254.5c349.2,154.8,337.8-76.6,261.3-219.5
			c-135-252.3,219.2-423,346.8-294.6"/>
		<path class="st2" d="M682.8,879.3c0,0-140.7-378.6,140.3-255.3c348.1,152.8,341-73.6,264.8-218.4
			C954.6,152.1,1307.5-14,1433.7,113"/>
		<path class="st2" d="M684,878.3c0,0-141.4-377.9,139.2-256.1c347,150.7,344.2-70.5,268.3-217.4
			C960,150.2,1311.6-11.4,1436.4,114.3"/>
		<path class="st2" d="M685.3,877.3c0,0-142-377.3,138.1-256.9c345.9,148.7,347.4-67.4,271.8-216.4
			C965.3,148.4,1315.7-8.7,1439,115.5"/>
		<path class="st2" d="M686.5,876.3c0,0-142.7-376.7,137-257.7c344.9,146.6,350.7-64.4,275.3-215.4
			C970.6,146.5,1319.7-6,1441.7,116.8"/>
		<path class="st2" d="M687.7,875.3c0,0-143.4-376,135.9-258.5c343.8,144.6,353.9-61.3,278.7-214.3
			C975.9,144.7,1323.8-3.4,1444.4,118"/>
		<path class="st2" d="M689,874.4c0,0-144-375.4,134.9-259.3c342.7,142.6,357.1-58.2,282.2-213.3C981.1,142.9,1327.9-0.7,1447,119.3
			"/>
		<path class="st2" d="M690.2,873.4c0,0-144.7-374.7,133.8-260.2c341.6,140.5,360.3-55.1,285.7-212.3
			c-123.3-259.9,222.2-399,340-280.4"/>
		<path class="st2" d="M691.5,872.4c0,0-145.4-374.1,132.7-261c340.5,138.5,363.5-52,289.2-211.3C991.6,139.2,1336,4.6,1452.3,121.8
			"/>
		<path class="st2" d="M692.7,871.4c0,0-146.1-373.4,131.6-261.8c339.5,136.5,366.7-48.9,292.7-210.2
			C996.8,137.4,1340.1,7.3,1455,123"/>
		<path class="st2" d="M693.9,870.4c0,0-146.7-372.8,130.5-262.6c338.4,134.4,369.8-45.8,296.2-209.2
			c-118.6-263,223.5-388.7,337.1-274.4"/>
		<path class="st2" d="M695.2,869.4c0,0-147.4-372.1,129.4-263.4c337.3,132.4,373-42.7,299.6-208.2
			c-117-264,223.9-385.3,336.1-272.4"/>
		<path class="st2" d="M696.4,868.5c0,0-148.1-371.4,128.3-264.2c336.2,130.4,376.2-39.6,303.1-207.1
			c-115.5-265,224.4-381.9,335.1-270.3"/>
		<path class="st2" d="M697.6,867.5c0,0-148.8-370.8,127.3-265c335.1,128.4,379.3-36.5,306.6-206.1
			c-114-266,224.8-378.4,334.1-268.3"/>
		<path class="st2" d="M698.9,866.5c0,0-149.5-370.1,126.2-265.9c334,126.4,382.5-33.3,310.1-205.1
			c-112.4-266.9,225.2-375,333.2-266.3"/>
		<path class="st2" d="M700.1,865.5c0,0-150.2-369.5,125.1-266.7c332.9,124.3,385.6-30.2,313.6-204.1
			c-111-267.9,225.7-371.6,332.2-264.3"/>
		<path class="st2" d="M701.3,864.5c0,0-150.8-368.8,124-267.5c331.8,122.3,388.7-27.1,317.1-203
			c-109.5-268.9,226.1-368.1,331.2-262.3"/>
		<path class="st2" d="M702.6,863.5c0,0-151.5-368.1,122.9-268.3c330.7,120.3,391.8-23.9,320.6-202
			C1038,123.4,1372.6,28.5,1476.3,133"/>
		<path class="st2" d="M703.8,862.6c0,0-152.2-367.5,121.8-269.1c329.6,118.3,395-20.8,324-201C1043.1,121.7,1376.6,31.2,1479,134.2
			"/>
		<path class="st2" d="M705.1,861.6c0,0-152.9-366.8,120.7-269.9c328.5,116.3,398.1-17.7,327.5-200
			C1048.2,120,1380.7,33.8,1481.6,135.5"/>
		<path class="st2" d="M706.3,860.6c0,0-153.6-366.1,119.7-270.7c327.4,114.3,401.2-14.5,331-198.9
			c-103.7-272.7,227.8-354.4,327.3-254.2"/>
		<path class="st2" d="M707.5,859.6c0,0-154.3-365.5,118.6-271.5c326.3,112.3,404.2-11.3,334.5-197.9
			C1058.3,116.6,1388.8,39.2,1487,138"/>
		<path class="st2" d="M708.8,858.6c0,0-155-364.8,117.5-272.4c325.2,110.3,407.3-8.2,338-196.9
			c-100.9-274.5,228.7-347.6,325.4-250.2"/>
		<path class="st2" d="M710,857.6c0,0-155.7-364.1,116.4-273.2c324.1,108.3,410.4-5,341.5-195.9
			c-99.5-275.5,229.1-344.1,324.4-248.1"/>
		<path class="st2" d="M711.2,856.7c0,0-156.4-363.4,115.3-274c323,106.3,413.5-1.9,345-194.8c-98.1-276.4,229.5-340.7,323.4-246.1"
			/>
		<path class="st2" d="M712.5,855.7c0,0-157.1-362.7,114.2-274.8c321.9,104.3,416.5,1.3,348.4-193.8
			c-96.8-277.3,229.9-337.3,322.5-244.1"/>
		<path class="st2" d="M713.7,854.7c0,0-157.8-362.1,113.1-275.6c320.7,102.3,419.6,4.5,351.9-192.8
			c-95.4-278.2,230.4-333.8,321.5-242.1"/>
		<path class="st2" d="M714.9,853.7c0,0-158.5-361.4,112-276.4c319.6,100.4,422.6,7.6,355.4-191.7
			c-94.1-279.1,230.8-330.4,320.5-240.1"/>
		<path class="st2" d="M716.2,852.7c0,0-159.2-360.7,111-277.2c318.5,98.4,425.6,10.8,358.9-190.7c-92.7-280,231.2-327,319.6-238.1"
			/>
		<path class="st2" d="M717.4,851.8c0,0-159.9-360,109.9-278.1c317.4,96.4,428.6,14,362.4-189.7c-91.4-280.9,231.7-323.6,318.6-236"
			/>
		<path class="st2" d="M718.7,850.8c0,0-160.6-359.3,108.8-278.9c316.3,94.4,431.7,17.2,365.9-188.7
			c-90.1-281.8,232.1-320.1,317.6-234"/>
		<path class="st2" d="M719.9,849.8c0,0-161.3-358.6,107.7-279.7c315.1,92.4,434.7,20.3,369.3-187.6
			c-88.8-282.7,232.5-316.7,316.6-232"/>
		<path class="st2" d="M721.1,848.8c0,0-162-357.9,106.6-280.5c314,90.5,437.7,23.5,372.8-186.6c-87.5-283.6,233-313.3,315.7-230"/>
		<path class="st2" d="M722.4,847.8c0,0-162.7-357.2,105.5-281.3c312.9,88.5,440.7,26.7,376.3-185.6
			C1118,96.4,1437.6,71.1,1518.9,153"/>
		<path class="st2" d="M723.6,846.8c0,0-163.4-356.5,104.4-282.1c311.8,86.6,443.6,29.9,379.8-184.6
			c-85-285.4,233.8-306.4,313.7-225.9"/>
		<path class="st2" d="M724.8,845.9c0,0-164.2-355.8,103.4-282.9c310.6,84.6,446.6,33.1,383.3-183.5
			c-83.7-286.3,234.2-303,312.8-223.9"/>
		<path class="st2" d="M726.1,844.9c0,0-164.9-355.1,102.3-283.8c309.5,82.6,449.6,36.3,386.8-182.5
			c-82.4-287.2,234.7-299.5,311.8-221.9"/>
		<path class="st2" d="M727.3,843.9c0,0-165.6-354.4,101.2-284.6c308.4,80.7,452.5,39.4,390.3-181.5
			c-81.2-288.1,235.1-296.1,310.8-219.9"/>
		<path class="st2" d="M728.5,842.9c0,0-166.3-353.7,100.1-285.4c307.2,78.7,455.5,42.6,393.7-180.4
			c-80-289,235.5-292.7,309.8-217.9"/>
		<path class="st2" d="M729.8,841.9c0,0-167-353,99-286.2c306.1,76.8,458.4,45.8,397.2-179.4C1147.3,86.4,1462,87,1534.9,160.4"/>
		<path class="st2" d="M731,840.9c0,0-167.7-352.2,97.9-287c305,74.9,461.3,49,400.7-178.4C1152.1,84.8,1466,89.7,1537.5,161.7"/>
		<path class="st2" d="M732.3,840c0,0-168.4-351.5,96.8-287.8c303.8,72.9,464.3,52.2,404.2-177.4
			C1157,83.1,1470.1,92.4,1540.2,162.9"/>
		<path class="st2" d="M733.5,839c0,0-169.2-350.8,95.8-288.6c302.7,71,467.2,55.4,407.7-176.3c-75.1-292.5,237.2-279,305.9-209.8"
			/>
		<path class="st2" d="M734.7,838c0,0-169.9-350.1,94.7-289.5c301.5,69.1,470.1,58.6,411.2-175.3c-73.9-293.4,237.7-275.5,305-207.8
			"/>
		<path class="st2" d="M736,837c0,0-170.6-349.3,93.6-290.3c300.4,67.1,473,61.8,414.6-174.3c-72.7-294.3,238.1-272.1,304-205.8"/>
		<path class="st2" d="M737.2,836c0,0-171.3-348.6,92.5-291.1c299.3,65.2,475.9,65,418.1-173.3c-71.6-295.2,238.5-268.7,303-203.7"
			/>
		<path class="st2" d="M738.4,835c0,0-172.1-347.8,91.4-291.9c298.1,63.3,478.8,68.2,421.6-172.2c-70.4-296.1,239-265.3,302.1-201.7
			"/>
		<path class="st2" d="M739.7,834.1c0,0-172.8-347.1,90.3-292.7c297,61.4,481.6,71.4,425.1-171.2
			c-69.2-296.9,239.4-261.8,301.1-199.7"/>
		<path class="st2" d="M740.9,833.1c0,0-173.5-346.4,89.2-293.5c295.8,59.5,484.5,74.6,428.6-170.2
			c-68.1-297.8,239.8-258.4,300.1-197.7"/>
		<path class="st2" d="M742.1,832.1c0,0-174.2-345.6,88.2-294.3c294.7,57.6,487.4,77.8,432.1-169.1
			c-66.9-298.7,240.3-255,299.1-195.7"/>
		<path class="st2" d="M743.4,831.1c0,0-175-344.9,87.1-295.2c293.5,55.7,490.2,81,435.6-168.1c-65.8-299.6,240.7-251.5,298.2-193.7
			"/>
		<path class="st2" d="M744.6,830.1c0,0-175.7-344.1,86-296c292.4,53.8,493.1,84.2,439-167.1C1205,66.6,1510.7,119,1566.8,175.4"/>
		<path class="st2" d="M745.8,829.1c0,0-176.4-343.3,84.9-296.8c291.2,51.9,495.9,87.4,442.5-166.1
			c-63.5-301.4,241.5-244.7,296.2-189.6"/>
		<path class="st2" d="M747.1,828.2c0,0-177.1-342.6,83.8-297.6c290.1,50,498.7,90.6,446-165c-62.4-302.3,242-241.2,295.2-187.6"/>
		<path class="st2" d="M748.3,827.2c0,0-177.9-341.8,82.7-298.4c288.9,48.1,501.6,93.8,449.5-164
			c-61.2-303.2,242.4-237.8,294.3-185.6"/>
		<path class="st2" d="M749.6,826.2c0,0-178.6-341,81.6-299.2c287.8,46.2,504.4,97,453-163C1224,59.9,1527,129.6,1577.5,180.4"/>
		<path class="st2" d="M750.8,825.2c0,0-179.3-340.3,80.5-300c286.6,44.4,507.2,100.2,456.5-162c-59-305,243.3-231,292.3-181.6"/>
		<path class="st2" d="M752,824.2c0,0-180.1-339.5,79.5-300.9c285.5,42.5,510,103.3,459.9-160.9
			c-57.9-305.9,243.7-227.5,291.4-179.5"/>
		<path class="st2" d="M753.3,823.2c0,0-180.8-338.7,78.4-301.7c284.3,40.6,512.8,106.5,463.4-159.9
			c-56.8-306.8,244.1-224.1,290.4-177.5"/>
		<path class="st2" d="M754.5,822.3c0,0-181.5-337.9,77.3-302.5c283.2,38.8,515.6,109.7,466.9-158.9
			c-55.7-307.7,244.5-220.7,289.4-175.5"/>
		<path class="st2" d="M755.7,821.3c0,0-182.2-337.1,76.2-303.3c282,36.9,518.4,112.9,470.4-157.9
			c-54.6-308.6,245-217.2,288.4-173.5"/>
		<path class="st2" d="M757,820.3c0,0-183-336.3,75.1-304.1c280.9,35,521.1,116.1,473.9-156.8c-53.6-309.5,245.4-213.8,287.5-171.5"
			/>
		<path class="st2" d="M758.2,819.3c0,0-183.7-335.5,74-304.9c279.7,33.2,523.9,119.3,477.4-155.8
			c-52.5-310.4,245.8-210.4,286.5-169.4"/>
		<path class="st2" d="M759.4,818.3c0,0-184.4-334.7,72.9-305.7c278.6,31.3,526.7,122.5,480.9-154.8
			c-51.4-311.3,246.3-207,285.5-167.4"/>
		<path class="st2" d="M760.7,817.3c0,0-185.2-333.9,71.9-306.6C1110,540.3,1362,636.5,1316.9,357
			c-50.4-312.2,246.7-203.5,284.5-165.4"/>
		<path class="st2" d="M761.9,816.4c0,0-185.9-333.1,70.8-307.4c276.3,27.7,532.2,128.9,487.8-152.7
			c-49.3-313.1,247.1-200.1,283.6-163.4"/>
		<path class="st2" d="M763.2,815.4c0,0-186.6-332.2,69.7-308.2c275.1,25.8,534.9,132.1,491.3-151.7
			c-48.2-314,247.6-196.7,282.6-161.4"/>
		<path class="st2" d="M764.4,814.4c0,0-187.4-331.4,68.6-309c274,24,537.6,135.3,494.8-150.7c-47.2-314.9,248-193.2,281.6-159.4"/>
		<path class="st2" d="M765.6,813.4c0,0-188.1-330.6,67.5-309.8c272.9,22.2,540.4,138.5,498.3-149.6
			c-46.1-315.8,248.4-189.8,280.7-157.3"/>
		<path class="st2" d="M766.9,812.4c0,0-188.8-329.8,66.4-310.6c271.7,20.4,543.1,141.7,501.8-148.6
			c-45.1-316.8,248.8-186.4,279.7-155.3"/>
		<path class="st2" d="M768.1,811.4c0,0-189.5-328.9,65.3-311.4c270.6,18.6,545.8,144.8,505.3-147.6
			c-44.1-317.7,249.3-182.9,278.7-153.3"/>
		<path class="st2" d="M769.3,810.5c0,0-190.3-328.1,64.3-312.2c269.4,16.8,548.5,148,508.7-146.6
			c-43-318.6,249.7-179.5,277.7-151.3"/>
		<path class="st2" d="M770.6,809.5c0,0-191-327.2,63.2-313.1C1102,511.4,1385,647.6,1346,350.9c-42-319.5,250.1-176.1,276.8-149.3"
			/>
		<path class="st2" d="M771.8,808.5c0,0-191.7-326.4,62.1-313.9c267.1,13.1,553.9,154.4,515.7-144.5
			c-41-320.4,250.6-172.7,275.8-147.2"/>
		<path class="st2" d="M773,807.5c0,0-192.4-325.5,61-314.7c266,11.4,556.6,157.6,519.2-143.5c-39.9-321.4,251-169.2,274.8-145.2"/>
		<path class="st2" d="M774.3,806.5c0,0-193.1-324.6,59.9-315.5c264.9,9.6,559.3,160.8,522.7-142.4
			c-38.9-322.3,251.4-165.8,273.8-143.2"/>
		<path class="st2" d="M775.5,805.5c0,0-193.9-323.8,58.8-316.3c263.7,7.8,562,163.9,526.2-141.4
			c-37.9-323.2,251.8-162.4,272.9-141.2"/>
		<path class="st2" d="M776.8,804.6c0,0-194.6-322.9,57.7-317.1c262.6,6,564.6,167.1,529.6-140.4
			c-36.9-324.2,252.3-158.9,271.9-139.2"/>
		<path class="st2" d="M778,803.6c0,0-195.3-322,56.7-317.9c261.5,4.2,567.3,170.3,533.1-139.4c-35.9-325.1,252.7-155.5,270.9-137.2
			"/>
		<path class="st2" d="M779.2,802.6c0,0-196-321.1,55.6-318.8c260.3,2.5,570,173.5,536.6-138.3c-34.9-326.1,253.1-152.1,270-135.1"
			/>
		<path class="st2" d="M780.5,801.6c0,0-196.7-324.3,54.5-319.6c259.1,4.9,572.6,176.7,540.1-137.3c-33.9-327,253.6-148.6,269-133.1
			"/>
		<path class="st2" d="M781.7,800.6c0,0-197.4-323.1,53.4-320.4c258.1,2.8,575.3,179.8,543.6-136.3c-32.9-327.9,254-145.2,268-131.1
			"/>
		<path class="st2" d="M782.9,799.6c0,0-198.1-318.4,52.3-321.2c256.9-2.8,577.9,183,547.1-135.3c-31.9-328.9,254.4-141.8,267-129.1
			"/>
		<path class="st2" d="M784.2,798.7c0,0-198.9-317.5,51.2-322c255.8-4.6,580.5,186.2,550.6-134.2
			c-30.9-329.8,254.9-138.4,266.1-127.1"/>
		<path class="st2" d="M785.4,797.7c0,0-199.6-316.6,50.1-322.8c254.7-6.3,583.2,189.3,554-133.2c-29.9-330.8,255.3-134.9,265.1-125
			"/>
		<path class="st2" d="M786.6,796.7c0,0-200.3-315.7,49-323.6c253.6-8.1,585.8,192.5,557.5-132.2c-28.9-331.7,255.7-131.5,264.1-123
			"/>
		<path class="st2" d="M787.9,795.7c0,0-201-314.8,48-324.5c252.5-9.8,588.4,195.7,561-131.1C1368.9,7.4,1653,212,1660,219.1"/>
		<path class="st2" d="M789.1,794.7c0,0-201.7-313.9,46.9-325.3c251.4-11.6,591,198.9,564.5-130.1
			c-26.9-333.7,256.6-124.6,262.2-119"/>
		<path class="st2" d="M790.4,793.7c0,0-202.3-312.9,45.8-326.1c250.2-13.3,593.7,202,568-129.1c-25.9-334.6,257-121.2,261.2-117"/>
		<path class="st2" d="M791.6,792.8c0,0-203-311.6,44.7-326.9c249.2-14.6,596.3,205.2,571.5-128.1c-25-335.6,257.4-117.8,260.2-115"
			/>
		<path class="st2" d="M792.8,791.8c0,0-203.7-310.8,43.6-327.7c248.1-16.5,598.5,208.4,574.9-127
			C1387,0.5,1669.2,222.7,1670.7,224.1"/>
		<path class="st2" d="M794.1,790.8c0,0-204.4-310.1,42.5-328.5c246.9-18.4,601.5,211.5,578.4-126s258.3-110.9,258.3-110.9"/>
	</g>
</g>
</svg>
